<svg xmlns="http://www.w3.org/2000/svg" xmlns:xlink="http://www.w3.org/1999/xlink" width="2936" height="630" viewBox="0 0 2936 630">
    <defs>
        <linearGradient id="a" x1="50%" x2="50%" y1="98.323%" y2="0%">
            <stop offset="0%" stop-color="#F7FBFF"/>
            <stop offset="100%" stop-color="#F0F8FF"/>
        </linearGradient>
        <linearGradient id="b" x1="50%" x2="50%" y1="98.323%" y2="0%">
            <stop offset="0%" stop-color="#DFEDF9"/>
            <stop offset="100%" stop-color="#F1F8FF"/>
        </linearGradient>
        <linearGradient id="c" x1="50%" x2="50%" y1="98.323%" y2="0%">
            <stop offset="0%" stop-color="#DFEDF9"/>
            <stop offset="100%" stop-color="#F1F8FF"/>
        </linearGradient>
        <path id="d" d="M20.678 12.998h4.354v27.08h-4.354v-27.08zm26.12 0h4.354v27.08h-4.353v-27.08z"/>
        <filter id="e" width="103.3%" height="103.7%" x="-1.6%" y="-1.8%" filterUnits="objectBoundingBox">
            <feOffset dx="1" in="SourceAlpha" result="shadowOffsetInner1"/>
            <feComposite in="shadowOffsetInner1" in2="SourceAlpha" k2="-1" k3="1" operator="arithmetic" result="shadowInnerInner1"/>
            <feColorMatrix in="shadowInnerInner1" values="0 0 0 0 0 0 0 0 0 0 0 0 0 0 0 0 0 0 0.17072771 0"/>
        </filter>
        <linearGradient id="f" x1="50%" x2="50%" y1="98.323%" y2="0%">
            <stop offset="0%" stop-color="#D6E5F3"/>
            <stop offset="100%" stop-color="#EBF3FA"/>
        </linearGradient>
        <linearGradient id="g" x1="50%" x2="50%" y1="98.323%" y2="0%">
            <stop offset="0%" stop-color="#F7FBFF"/>
            <stop offset="100%" stop-color="#F0F8FF"/>
        </linearGradient>
        <linearGradient id="h" x1="50%" x2="50%" y1="98.323%" y2="0%">
            <stop offset="0%" stop-color="#EDF6FF"/>
            <stop offset="100%" stop-color="#EAF3FC"/>
        </linearGradient>
        <linearGradient id="i" x1="50%" x2="50%" y1="98.323%" y2="0%">
            <stop offset="0%" stop-color="#F7FBFF"/>
            <stop offset="100%" stop-color="#F0F8FF"/>
        </linearGradient>
        <linearGradient id="j" x1="50%" x2="50%" y1="98.323%" y2="0%">
            <stop offset="0%" stop-color="#EDF6FF"/>
            <stop offset="100%" stop-color="#EAF3FC"/>
        </linearGradient>
        <linearGradient id="k" x1="50%" x2="50%" y1="100%" y2="0%">
            <stop offset="0%" stop-color="#FCFDFF"/>
            <stop offset="100%" stop-color="#FAFCFF"/>
        </linearGradient>
        <linearGradient id="l" x1="50%" x2="50%" y1="98.323%" y2="0%">
            <stop offset="0%" stop-color="#EDF6FF" stop-opacity=".242"/>
            <stop offset="100%" stop-color="#EAF3FC"/>
        </linearGradient>
        <linearGradient id="m" x1="50%" x2="50%" y1="98.323%" y2="0%">
            <stop offset="0%" stop-color="#F7FBFF"/>
            <stop offset="100%" stop-color="#F0F8FF"/>
        </linearGradient>
        <linearGradient id="n" x1="50%" x2="50%" y1="98.323%" y2="0%">
            <stop offset="0%" stop-color="#DFEDF9"/>
            <stop offset="100%" stop-color="#F1F8FF"/>
        </linearGradient>
        <linearGradient id="o" x1="50%" x2="37.036%" y1="39.367%" y2="55.471%">
            <stop offset="0%" stop-color="#F3F8FD"/>
            <stop offset="100%" stop-color="#DDEBF8"/>
        </linearGradient>
        <linearGradient id="q" x1="50%" x2="50%" y1="98.323%" y2="0%">
            <stop offset="0%" stop-color="#F0F7FF"/>
            <stop offset="100%" stop-color="#F0F8FF"/>
        </linearGradient>
        <path id="p" d="M40.763 31.507L55.527.87h79.17l16.874 30.638h33.286c.928 0 1.68.752 1.68 1.68v266.675H0V31.507h40.763z"/>
        <linearGradient id="r" x1="50%" x2="50%" y1="98.323%" y2="0%">
            <stop offset="0%" stop-color="#E4F1FE"/>
            <stop offset="100%" stop-color="#E4F1FE"/>
        </linearGradient>
        <linearGradient id="t" x1="50%" x2="50%" y1="98.323%" y2="0%">
            <stop offset="0%" stop-color="#EEF7FF"/>
            <stop offset="100%" stop-color="#E9F4FF"/>
        </linearGradient>
        <linearGradient id="v" x1="50%" x2="50%" y1="98.323%" y2="0%">
            <stop offset="0%" stop-color="#D8EBFC"/>
            <stop offset="100%" stop-color="#E5F1FD"/>
        </linearGradient>
        <path id="u" d="M1.344 0H317.76c.742 0 1.344.602 1.344 1.344v256.84c0 .743-.602 1.345-1.344 1.345H1.344A1.344 1.344 0 0 1 0 258.185V1.344C0 .602.602 0 1.344 0z"/>
        <linearGradient id="w" x1="50%" x2="50%" y1="98.323%" y2="0%">
            <stop offset="0%" stop-color="#D1E4F5"/>
            <stop offset="100%" stop-color="#DCECFB"/>
        </linearGradient>
        <linearGradient id="y" x1="50%" x2="50%" y1="98.323%" y2="0%">
            <stop offset="0%" stop-color="#F7FBFF"/>
            <stop offset="100%" stop-color="#F0F8FF"/>
        </linearGradient>
        <linearGradient id="z" x1="50%" x2="50%" y1="98.323%" y2="0%">
            <stop offset="0%" stop-color="#F7FBFF"/>
            <stop offset="100%" stop-color="#F0F8FF"/>
        </linearGradient>
        <linearGradient id="A" x1="50%" x2="50%" y1="98.323%" y2="0%">
            <stop offset="0%" stop-color="#F7FBFF"/>
            <stop offset="100%" stop-color="#F0F8FF"/>
        </linearGradient>
        <linearGradient id="B" x1="50%" x2="50%" y1="98.323%" y2="0%">
            <stop offset="0%" stop-color="#E4EFF9"/>
            <stop offset="100%" stop-color="#EAF3FC"/>
        </linearGradient>
        <linearGradient id="C" x1="50%" x2="50%" y1="98.323%" y2="0%">
            <stop offset="0%" stop-color="#E4EFF9"/>
            <stop offset="100%" stop-color="#EAF3FC"/>
        </linearGradient>
        <path id="E" d="M.434 0h7.598v5.243H.434V0zm10.637 0h9.117v5.243h-9.117V0zm13.676 0h3.039v5.243h-3.04V0z"/>
        <filter id="D" width="103.7%" height="138.1%" x="-1.8%" y="-9.5%" filterUnits="objectBoundingBox">
            <feOffset dy="1" in="SourceAlpha" result="shadowOffsetOuter1"/>
            <feColorMatrix in="shadowOffsetOuter1" values="0 0 0 0 0 0 0 0 0 0 0 0 0 0 0 0 0 0 0.3 0"/>
        </filter>
        <path id="G" d="M.434 0h7.598v5.243H.434V0zm10.637 0h9.117v5.243h-9.117V0zm13.676 0h3.039v5.243h-3.04V0z"/>
        <filter id="F" width="103.7%" height="138.1%" x="-1.8%" y="-9.5%" filterUnits="objectBoundingBox">
            <feOffset dy="1" in="SourceAlpha" result="shadowOffsetOuter1"/>
            <feColorMatrix in="shadowOffsetOuter1" values="0 0 0 0 0 0 0 0 0 0 0 0 0 0 0 0 0 0 0.5 0"/>
        </filter>
        <linearGradient id="H" x1="50%" x2="50%" y1="98.323%" y2="0%">
            <stop offset="0%" stop-color="#EDF6FF"/>
            <stop offset="100%" stop-color="#EAF3FC"/>
        </linearGradient>
        <linearGradient id="I" x1="50%" x2="50%" y1="100%" y2="0%">
            <stop offset="0%" stop-color="#FCFDFF"/>
            <stop offset="100%" stop-color="#FAFCFF"/>
        </linearGradient>
        <path id="K" d="M1.085 0h22.142v10.486H1.085V0zm27.352 0H50.58v10.486H28.437V0zm26.05 0h22.141v10.486H54.486V0zm27.351 0h22.142v10.486H81.838V0zm27.352 0h22.142v10.486H109.19V0zm26.05 0h22.141v10.486H135.24V0zm27.351 0h22.142v10.486h-22.142V0zm26.05 0h22.141v10.486H188.64V0zm27.351 0h22.142v10.486h-22.142V0zm27.352 0h22.142v10.486h-22.142V0zm26.05 0h19.536v10.486h-19.537V0z"/>
        <filter id="J" width="100.3%" height="119.1%" x="-.2%" y="-4.8%" filterUnits="objectBoundingBox">
            <feOffset dy="1" in="SourceAlpha" result="shadowOffsetOuter1"/>
            <feColorMatrix in="shadowOffsetOuter1" values="0 0 0 0 0.768627451 0 0 0 0 0.843137255 0 0 0 0 0.917647059 0 0 0 0.452906469 0"/>
        </filter>
        <path id="M" d="M293.272.218h7.597v10.486h-7.597V.218zm10.637 0h9.117v10.486h-9.117V.218zm13.675 0h3.04v10.486h-3.04V.218z"/>
        <filter id="L" width="103.7%" height="119.1%" x="-1.8%" y="-4.8%" filterUnits="objectBoundingBox">
            <feOffset dy="1" in="SourceAlpha" result="shadowOffsetOuter1"/>
            <feColorMatrix in="shadowOffsetOuter1" values="0 0 0 0 0.768627451 0 0 0 0 0.843137255 0 0 0 0 0.917647059 0 0 0 0.452906469 0"/>
        </filter>
        <path id="N" d="M1.344 0H317.76c.742 0 1.344.602 1.344 1.344v256.84c0 .743-.602 1.345-1.344 1.345H1.344A1.344 1.344 0 0 1 0 258.185V1.344C0 .602.602 0 1.344 0z"/>
        <path id="Q" d="M.434 0h7.598v5.243H.434V0zm10.637 0h9.117v5.243h-9.117V0zm13.676 0h3.039v5.243h-3.04V0z"/>
        <filter id="P" width="103.7%" height="138.1%" x="-1.8%" y="-9.5%" filterUnits="objectBoundingBox">
            <feOffset dy="1" in="SourceAlpha" result="shadowOffsetOuter1"/>
            <feColorMatrix in="shadowOffsetOuter1" values="0 0 0 0 0 0 0 0 0 0 0 0 0 0 0 0 0 0 0.3 0"/>
        </filter>
        <path id="S" d="M.434 0h7.598v5.243H.434V0zm10.637 0h9.117v5.243h-9.117V0zm13.676 0h3.039v5.243h-3.04V0z"/>
        <filter id="R" width="103.7%" height="138.1%" x="-1.8%" y="-9.5%" filterUnits="objectBoundingBox">
            <feOffset dy="1" in="SourceAlpha" result="shadowOffsetOuter1"/>
            <feColorMatrix in="shadowOffsetOuter1" values="0 0 0 0 0 0 0 0 0 0 0 0 0 0 0 0 0 0 0.5 0"/>
        </filter>
        <path id="U" d="M1.085 0h22.142v10.486H1.085V0zm27.352 0H50.58v10.486H28.437V0zm26.05 0h22.141v10.486H54.486V0zm27.351 0h22.142v10.486H81.838V0zm27.352 0h22.142v10.486H109.19V0zm26.05 0h22.141v10.486H135.24V0zm27.351 0h22.142v10.486h-22.142V0zm26.05 0h22.141v10.486H188.64V0zm27.351 0h22.142v10.486h-22.142V0zm27.352 0h22.142v10.486h-22.142V0zm26.05 0h19.536v10.486h-19.537V0z"/>
        <filter id="T" width="100.3%" height="119.1%" x="-.2%" y="-4.8%" filterUnits="objectBoundingBox">
            <feOffset dy="1" in="SourceAlpha" result="shadowOffsetOuter1"/>
            <feColorMatrix in="shadowOffsetOuter1" values="0 0 0 0 0.768627451 0 0 0 0 0.843137255 0 0 0 0 0.917647059 0 0 0 0.452906469 0"/>
        </filter>
        <path id="W" d="M293.272.218h7.597v10.486h-7.597V.218zm10.637 0h9.117v10.486h-9.117V.218zm13.675 0h3.04v10.486h-3.04V.218z"/>
        <filter id="V" width="103.7%" height="119.1%" x="-1.8%" y="-4.8%" filterUnits="objectBoundingBox">
            <feOffset dy="1" in="SourceAlpha" result="shadowOffsetOuter1"/>
            <feColorMatrix in="shadowOffsetOuter1" values="0 0 0 0 0.768627451 0 0 0 0 0.843137255 0 0 0 0 0.917647059 0 0 0 0.452906469 0"/>
        </filter>
        <linearGradient id="Y" x1="51.986%" x2="51.986%" y1="100%" y2="0%">
            <stop offset="0%" stop-color="#C9E0F6"/>
            <stop offset="100%" stop-color="#F3F9FF"/>
        </linearGradient>
        <path id="X" d="M1.344.653h225.69c.741 0 1.343.601 1.343 1.344v195.238c0 .743-.602 1.344-1.344 1.344H1.344A1.344 1.344 0 0 1 0 197.235V1.997C0 1.254.602.653 1.344.653z"/>
        <linearGradient id="Z" x1="50%" x2="50%" y1="98.323%" y2="0%">
            <stop offset="0%" stop-color="#D6E5F3"/>
            <stop offset="100%" stop-color="#EBF3FA"/>
        </linearGradient>
        <path id="ab" d="M20.663 13.05h4.35v27.188h-4.35V13.05zm26.1 0h4.35v27.188h-4.35V13.05z"/>
        <filter id="ac" width="103.3%" height="103.7%" x="-1.6%" y="-1.8%" filterUnits="objectBoundingBox">
            <feOffset dx="1" in="SourceAlpha" result="shadowOffsetInner1"/>
            <feComposite in="shadowOffsetInner1" in2="SourceAlpha" k2="-1" k3="1" operator="arithmetic" result="shadowInnerInner1"/>
            <feColorMatrix in="shadowInnerInner1" values="0 0 0 0 0 0 0 0 0 0 0 0 0 0 0 0 0 0 0.17072771 0"/>
        </filter>
        <linearGradient id="ad" x1="50%" x2="37.036%" y1="48.925%" y2="50.553%">
            <stop offset="0%" stop-color="#F3F8FD"/>
            <stop offset="100%" stop-color="#DDEBF8"/>
        </linearGradient>
        <linearGradient id="ae" x1="50%" x2="37.036%" y1="36.281%" y2="57.059%">
            <stop offset="0%" stop-color="#F3F8FD"/>
            <stop offset="100%" stop-color="#DDEBF8"/>
        </linearGradient>
        <linearGradient id="af" x1="50%" x2="50%" y1="100%" y2="0%">
            <stop offset="0%" stop-color="#FCFDFF"/>
            <stop offset="100%" stop-color="#FAFCFF"/>
        </linearGradient>
        <linearGradient id="ag" x1="50%" x2="50%" y1="69.371%" y2="0%">
            <stop offset="0%" stop-color="#F7FBFF"/>
            <stop offset="100%" stop-color="#F0F8FF"/>
        </linearGradient>
        <linearGradient id="ah" x1="76.869%" x2="50%" y1="53.646%" y2="43.874%">
            <stop offset="0%" stop-color="#F7FBFF"/>
            <stop offset="100%" stop-color="#FDFEFF"/>
        </linearGradient>
        <linearGradient id="aj" x1="50.227%" x2="50.227%" y1="92.492%" y2="2.795%">
            <stop offset="0%" stop-color="#E4F0FA"/>
            <stop offset="100%" stop-color="#F3F9FE"/>
        </linearGradient>
        <path id="ai" d="M1.102 13.042h11.001L19.777.179A.368.368 0 0 1 20.092 0h32.472c.108 0 .211.048.28.13l10.901 12.912h17.503c.203 0 .367.164.367.367v14.916a.367.367 0 0 1-.367.367H.368A.367.367 0 0 1 0 28.325v-14.18c0-.61.494-1.103 1.102-1.103z"/>
        <linearGradient id="al" x1="76.869%" x2="50%" y1="55.979%" y2="39.954%">
            <stop offset="0%" stop-color="#F7FBFF"/>
            <stop offset="100%" stop-color="#FDFEFF"/>
        </linearGradient>
        <linearGradient id="am" x1="50.227%" x2="50.227%" y1="92.492%" y2="2.795%">
            <stop offset="0%" stop-color="#E4F0FA"/>
            <stop offset="100%" stop-color="#F3F9FE"/>
        </linearGradient>
        <linearGradient id="an" x1="50%" x2="50%" y1="98.323%" y2="0%">
            <stop offset="0%" stop-color="#E0ECF6"/>
            <stop offset="100%" stop-color="#D3E4F3"/>
        </linearGradient>
        <linearGradient id="ao" x1="50%" x2="50%" y1="98.323%" y2="0%">
            <stop offset="0%" stop-color="#E0ECF6"/>
            <stop offset="100%" stop-color="#D3E4F3"/>
        </linearGradient>
        <path id="ap" d="M1.102 13.042h11.001L19.777.179A.368.368 0 0 1 20.092 0h32.472c.108 0 .211.048.28.13l10.901 12.912h17.503c.203 0 .367.164.367.367v14.916a.367.367 0 0 1-.367.367H.368A.367.367 0 0 1 0 28.325v-14.18c0-.61.494-1.103 1.102-1.103z"/>
        <linearGradient id="ar" x1="50%" x2="50%" y1="98.323%" y2="0%">
            <stop offset="0%" stop-color="#DEECF9"/>
            <stop offset="100%" stop-color="#EBF5FF"/>
        </linearGradient>
        <linearGradient id="as" x1="50%" x2="50%" y1="98.323%" y2="0%">
            <stop offset="0%" stop-color="#DFEDF9"/>
            <stop offset="100%" stop-color="#F1F8FF"/>
        </linearGradient>
        <linearGradient id="at" x1="50%" x2="50%" y1="98.323%" y2="0%">
            <stop offset="0%" stop-color="#DFEDF9"/>
            <stop offset="100%" stop-color="#F1F8FF"/>
        </linearGradient>
        <linearGradient id="au" x1="50%" x2="50%" y1="98.323%" y2="0%">
            <stop offset="0%" stop-color="#DFEDF9"/>
            <stop offset="100%" stop-color="#F1F8FF"/>
        </linearGradient>
        <linearGradient id="av" x1="50%" x2="50%" y1="98.323%" y2="0%">
            <stop offset="0%" stop-color="#CBDEF0"/>
            <stop offset="100%" stop-color="#D3E2F0"/>
        </linearGradient>
        <linearGradient id="aw" x1="50%" x2="50%" y1="98.323%" y2="0%">
            <stop offset="0%" stop-color="#CBDEF0"/>
            <stop offset="100%" stop-color="#D3E2F0"/>
        </linearGradient>
        <linearGradient id="ax" x1="50%" x2="50%" y1="98.323%" y2="0%">
            <stop offset="0%" stop-color="#DEECF9"/>
            <stop offset="100%" stop-color="#EBF5FF"/>
        </linearGradient>
        <linearGradient id="ay" x1="50%" x2="50%" y1="98.323%" y2="0%">
            <stop offset="0%" stop-color="#D6E5F3"/>
            <stop offset="100%" stop-color="#C8DAED"/>
        </linearGradient>
        <linearGradient id="az" x1="50%" x2="50%" y1="98.323%" y2="0%">
            <stop offset="0%" stop-color="#E4EFF9"/>
            <stop offset="100%" stop-color="#EAF3FC"/>
        </linearGradient>
        <linearGradient id="aA" x1="50%" x2="50%" y1="98.323%" y2="0%">
            <stop offset="0%" stop-color="#C9DBED"/>
            <stop offset="100%" stop-color="#BDD2E7"/>
        </linearGradient>
        <linearGradient id="aB" x1="50%" x2="50%" y1="98.323%" y2="0%">
            <stop offset="0%" stop-color="#C5DCF1"/>
            <stop offset="100%" stop-color="#D3E2F0"/>
        </linearGradient>
        <linearGradient id="aC" x1="50%" x2="50%" y1="98.323%" y2="0%">
            <stop offset="0%" stop-color="#EDF6FF"/>
            <stop offset="100%" stop-color="#EAF3FC"/>
        </linearGradient>
        <linearGradient id="aD" x1="50%" x2="50%" y1="98.323%" y2="0%">
            <stop offset="0%" stop-color="#E4EFF9"/>
            <stop offset="100%" stop-color="#EAF3FC"/>
        </linearGradient>
        <linearGradient id="aE" x1="50%" x2="50%" y1="98.323%" y2="0%">
            <stop offset="0%" stop-color="#F7FBFF"/>
            <stop offset="100%" stop-color="#F0F8FF"/>
        </linearGradient>
        <linearGradient id="aF" x1="50%" x2="50%" y1="98.323%" y2="0%">
            <stop offset="0%" stop-color="#EDF6FF"/>
            <stop offset="100%" stop-color="#EAF3FC"/>
        </linearGradient>
        <linearGradient id="aG" x1="50%" x2="50%" y1="92.032%" y2="0%">
            <stop offset="0%" stop-color="#D7EAFC"/>
            <stop offset="100%" stop-color="#E6F1FC"/>
        </linearGradient>
        <linearGradient id="aH" x1="50%" x2="50%" y1="81.027%" y2="0%">
            <stop offset="0%" stop-color="#D0E4F6"/>
            <stop offset="100%" stop-color="#DFECF9"/>
        </linearGradient>
        <linearGradient id="aI" x1="50%" x2="50%" y1="81.027%" y2="0%">
            <stop offset="0%" stop-color="#D8EBFC"/>
            <stop offset="100%" stop-color="#E5F2FD"/>
        </linearGradient>
        <linearGradient id="aJ" x1="50%" x2="50%" y1="98.323%" y2="0%">
            <stop offset="0%" stop-color="#C2DAF0"/>
            <stop offset="100%" stop-color="#DFEDFB"/>
        </linearGradient>
        <path id="aK" d="M17.812 9.971h3.75v20.774h-3.75V9.971zm22.5 0h3.75v20.774h-3.75V9.971z"/>
        <filter id="aL" width="107.6%" height="109.6%" x="-3.8%" y="-4.8%" filterUnits="objectBoundingBox">
            <feOffset dx="2" in="SourceAlpha" result="shadowOffsetInner1"/>
            <feComposite in="shadowOffsetInner1" in2="SourceAlpha" k2="-1" k3="1" operator="arithmetic" result="shadowInnerInner1"/>
            <feColorMatrix in="shadowInnerInner1" values="0 0 0 0 0 0 0 0 0 0 0 0 0 0 0 0 0 0 0.17072771 0"/>
        </filter>
        <rect id="aM" width="5.101" height="28.772" x="21.666" y="49.697" rx=".41"/>
        <filter id="aN" width="178.4%" height="113.9%" x="-39.2%" y="-7%" filterUnits="objectBoundingBox">
            <feOffset dy="4" in="SourceAlpha" result="shadowOffsetInner1"/>
            <feComposite in="shadowOffsetInner1" in2="SourceAlpha" k2="-1" k3="1" operator="arithmetic" result="shadowInnerInner1"/>
            <feColorMatrix in="shadowInnerInner1" values="0 0 0 0 0 0 0 0 0 0 0 0 0 0 0 0 0 0 0.156331949 0"/>
        </filter>
        <linearGradient id="aP" x1="50%" x2="50%" y1="98.323%" y2="0%">
            <stop offset="0%" stop-color="#DFEDF9"/>
            <stop offset="100%" stop-color="#F1F8FF"/>
        </linearGradient>
        <ellipse id="aO" cx="24.142" cy="29.946" rx="24.142" ry="29.946"/>
        <linearGradient id="aR" x1="50%" x2="50%" y1="98.323%" y2="0%">
            <stop offset="0%" stop-color="#C1D2E8"/>
            <stop offset="47.338%" stop-color="#BBCEE5"/>
            <stop offset="100%" stop-color="#A9C0DA"/>
        </linearGradient>
        <rect id="aS" width="8.232" height="30.441" x="30.185" y="74.718" rx=".717"/>
        <filter id="aT" width="172.9%" height="119.7%" x="-36.4%" y="-9.9%" filterUnits="objectBoundingBox">
            <feOffset dy="6" in="SourceAlpha" result="shadowOffsetInner1"/>
            <feComposite in="shadowOffsetInner1" in2="SourceAlpha" k2="-1" k3="1" operator="arithmetic" result="shadowInnerInner1"/>
            <feColorMatrix in="shadowInnerInner1" values="0 0 0 0 0 0 0 0 0 0 0 0 0 0 0 0 0 0 0.156331949 0"/>
        </filter>
        <linearGradient id="aU" x1="50%" x2="50%" y1="0%" y2="100%">
            <stop offset="0%" stop-color="#E4F9F2"/>
            <stop offset="100%" stop-color="#AAE5D1"/>
        </linearGradient>
        <linearGradient id="aV" x1="50%" x2="50%" y1="0%" y2="100%">
            <stop offset="0%" stop-color="#C1EDDE" stop-opacity="0"/>
            <stop offset="100%" stop-color="#B7EBD9"/>
        </linearGradient>
        <linearGradient id="aW" x1="50%" x2="50%" y1="0%" y2="100%">
            <stop offset="0%" stop-color="#C1EDDE" stop-opacity="0"/>
            <stop offset="100%" stop-color="#B7EBD9"/>
        </linearGradient>
        <linearGradient id="aX" x1="50%" x2="50%" y1="69.371%" y2="0%">
            <stop offset="0%" stop-color="#F7FBFF"/>
            <stop offset="100%" stop-color="#F0F8FF"/>
        </linearGradient>
        <linearGradient id="aY" x1="76.869%" x2="50%" y1="56.719%" y2="38.71%">
            <stop offset="0%" stop-color="#F7FBFF"/>
            <stop offset="100%" stop-color="#FDFEFF"/>
        </linearGradient>
        <linearGradient id="ba" x1="50.227%" x2="50.227%" y1="92.492%" y2="2.795%">
            <stop offset="0%" stop-color="#E4F0FA"/>
            <stop offset="100%" stop-color="#F3F9FE"/>
        </linearGradient>
        <path id="aZ" d="M2.215 0h62.422c.143 0 .28.06.378.165l16.3 17.647h8.456a1.4 1.4 0 0 1 1.4 1.4v25.792c0 .284-.23.514-.514.514H.524a.514.514 0 0 1-.514-.524l.805-43.62A1.4 1.4 0 0 1 2.215 0z"/>
        <linearGradient id="bc" x1="50%" x2="50%" y1="98.323%" y2="0%">
            <stop offset="0%" stop-color="#E0ECF6"/>
            <stop offset="100%" stop-color="#D3E4F3"/>
        </linearGradient>
        <linearGradient id="bd" x1="50%" x2="50%" y1="98.323%" y2="0%">
            <stop offset="0%" stop-color="#E0ECF6"/>
            <stop offset="100%" stop-color="#D3E4F3"/>
        </linearGradient>
        <linearGradient id="be" x1="50%" x2="50%" y1="98.323%" y2="0%">
            <stop offset="0%" stop-color="#C1D2E8"/>
            <stop offset="47.338%" stop-color="#BBCEE5"/>
            <stop offset="100%" stop-color="#A9C0DA"/>
        </linearGradient>
        <rect id="bf" width="23.084" height="85.395" x="84.64" y="209.606" rx=".512"/>
        <filter id="bg" width="117.3%" height="104.7%" x="-8.7%" y="-2.3%" filterUnits="objectBoundingBox">
            <feOffset dy="4" in="SourceAlpha" result="shadowOffsetInner1"/>
            <feComposite in="shadowOffsetInner1" in2="SourceAlpha" k2="-1" k3="1" operator="arithmetic" result="shadowInnerInner1"/>
            <feColorMatrix in="shadowInnerInner1" values="0 0 0 0 0 0 0 0 0 0 0 0 0 0 0 0 0 0 0.156331949 0"/>
        </filter>
        <linearGradient id="bh" x1="50%" x2="50%" y1="0%" y2="100%">
            <stop offset="0%" stop-color="#E4F9F2"/>
            <stop offset="100%" stop-color="#AAE5D1"/>
        </linearGradient>
        <linearGradient id="bi" x1="50%" x2="50%" y1="0%" y2="100%">
            <stop offset="0%" stop-color="#C1EDDE" stop-opacity="0"/>
            <stop offset="100%" stop-color="#B7EBD9"/>
        </linearGradient>
        <linearGradient id="bj" x1="50%" x2="50%" y1="0%" y2="100%">
            <stop offset="0%" stop-color="#C1EDDE" stop-opacity="0"/>
            <stop offset="100%" stop-color="#B7EBD9"/>
        </linearGradient>
        <linearGradient id="bk" x1="50%" x2="50%" y1="98.323%" y2="0%">
            <stop offset="0%" stop-color="#C1D2E8"/>
            <stop offset="47.338%" stop-color="#BBCEE5"/>
            <stop offset="100%" stop-color="#A9C0DA"/>
        </linearGradient>
        <rect id="bl" width="12.581" height="67.252" x="34.597" y="175.664" rx=".717"/>
        <filter id="bm" width="131.8%" height="105.9%" x="-15.9%" y="-3%" filterUnits="objectBoundingBox">
            <feOffset dy="4" in="SourceAlpha" result="shadowOffsetInner1"/>
            <feComposite in="shadowOffsetInner1" in2="SourceAlpha" k2="-1" k3="1" operator="arithmetic" result="shadowInnerInner1"/>
            <feColorMatrix in="shadowInnerInner1" values="0 0 0 0 0 0 0 0 0 0 0 0 0 0 0 0 0 0 0.156331949 0"/>
        </filter>
        <linearGradient id="bo" x1="50%" x2="50%" y1="0%" y2="100%">
            <stop offset="0%" stop-color="#E2F7F1"/>
            <stop offset="100%" stop-color="#C1EDDE"/>
        </linearGradient>
        <path id="bn" d="M40.887 181.418c22.581 0 40.887-3.713 40.887-53.81S63.468 0 40.887 0 0 77.51 0 127.608c0 50.097 18.306 53.81 40.887 53.81z"/>
        <linearGradient id="bq" x1="50%" x2="50%" y1="0%" y2="100%">
            <stop offset="0%" stop-color="#C1EDDE" stop-opacity="0"/>
            <stop offset="100%" stop-color="#B7EBD9"/>
        </linearGradient>
        <linearGradient id="br" x1="50%" x2="50%" y1="0%" y2="100%">
            <stop offset="0%" stop-color="#C1EDDE" stop-opacity="0"/>
            <stop offset="100%" stop-color="#B7EBD9"/>
        </linearGradient>
    </defs>
    <g fill="none" fill-rule="evenodd">
        <path fill="#F7FBFF" d="M0 0h2936v630H0z"/>
        <g fill="#FFF">
            <path d="M956.02 190.391c-13.39 4.827-36.13-1.029-45.169-11.712-17.75-20.977-38.889-34.07-72.826-28.322-33.937 5.747-25.218 42.885-45.597 48.377-34.001 9.165-76.95-28.681-105.56 8.344-19.073 24.683-16.358 46.116 8.145 64.3h270.86c68.939 0 59.59-106.017-9.853-80.987zM1603.414 238.391c13.39 4.827 36.13-1.029 45.169-11.712 17.75-20.977 38.889-34.07 72.826-28.322 33.937 5.747 25.218 42.885 45.597 48.377 34.001 9.165 76.95-28.681 105.56 8.344 19.073 24.683 16.358 46.116-8.145 64.3h-270.86c-68.939 0-59.59-106.017 9.853-80.987zM1968.458 170.84c7.066 2.548 19.065-.542 23.835-6.18 9.366-11.068 20.52-17.977 38.427-14.944 17.908 3.033 13.307 22.629 24.06 25.527 17.942 4.836 40.604-15.134 55.701 4.403 10.064 13.024 8.632 24.334-4.298 33.929H1963.26c-36.377 0-31.444-55.942 5.198-42.734z"/>
        </g>
        <path fill="#FFF" fill-rule="nonzero" d="M659.668 390.258c567.98-24.448 664.51 186.81 982.22 186.81 317.71 0 667.864-121.768 901.978-20.348C2638 597.5 2652.5 630 2804 630c.074 420.565-526.5 707.5-977 773.5s-31 375.849-1198 104.5-886-878-600.5-878 219-222 631.168-239.742z"/>
        <path fill="url(#a)" d="M25.032 0h127.304c.618 0 1.12.501 1.12 1.12v367.165H25.032V0z" transform="translate(2012.715 125.343)"/>
        <path fill="url(#b)" d="M1.12 0h25v368.285H0V1.12C0 .501.501 0 1.12 0z" transform="translate(2012.715 125.343)"/>
        <g fill="#DAE7F4" opacity=".6">
            <path d="M2020.578 144.012h13.317v13.317h-13.317zM2020.578 167.792h13.317v13.317h-13.317zM2020.578 189.41h13.317v13.317h-13.317zM2020.578 213.19h13.317v13.317h-13.317zM2020.578 234.809h13.317v13.317h-13.317zM2020.578 258.589h13.317v13.317h-13.317zM2020.578 280.207h13.317v13.317h-13.317zM2020.578 303.987h13.317v13.317h-13.317zM2020.578 325.606h13.317v13.317h-13.317zM2020.578 349.386h13.317v13.317h-13.317zM2020.578 371.004h13.317v13.317h-13.317zM2020.578 394.784h13.317v13.317h-13.317zM2020.578 416.403h13.317v13.316h-13.317z"/>
        </g>
        <path fill="url(#c)" d="M51.152 0h140.364c.619 0 1.12.501 1.12 1.12v38.958H51.152V0z" transform="translate(1984.418 453.55)"/>
        <path fill="#DAE7F4" d="M2046.679 462.11h33.292v23.305h-33.292z" opacity=".6"/>
        <path fill="#A5BECC" d="M2085.633 468.715h31.562v24.913h-31.562z"/>
        <g transform="translate(2078.015 453.55)">
            <use fill="#C3D4E4" xlink:href="#d"/>
            <use fill="#000" filter="url(#e)" xlink:href="#d"/>
        </g>
        <path fill="#D9E7F4" d="M2089.215 453.55h24.399c6.185 0 11.2 5.014 11.2 11.2v3.964h-46.799v-3.964c0-6.186 5.015-11.2 11.2-11.2z"/>
        <path fill="#E1EEFA" d="M2107.717 453.55h12.427c6.185 0 11.2 5.014 11.2 11.2v3.964h-34.827v-3.964c0-6.186 5.014-11.2 11.2-11.2z"/>
        <path fill="#DAE7F4" d="M2135.314 462.11h33.292v23.305h-33.292z" opacity=".6"/>
        <path fill="url(#f)" d="M1.12 0h50.032v40.078H0V1.12C0 .501.501 0 1.12 0z" transform="translate(1984.418 453.55)"/>
        <path fill="#DAE7F4" d="M1994.19 464.272h29.962v23.305h-29.963z" opacity=".6"/>
        <g fill="#DAE7F4">
            <g opacity=".6">
                <path d="M2049.963 144.012h13.317v13.317h-13.317zM2073.743 144.012h13.317v13.317h-13.317zM2095.361 144.012h13.317v13.317h-13.317zM2119.141 144.012h13.317v13.317h-13.317zM2140.76 144.012h13.317v13.317h-13.317z"/>
            </g>
            <g opacity=".6">
                <path d="M2049.963 166.759h13.317v13.317h-13.317zM2073.743 166.759h13.317v13.317h-13.317zM2095.361 166.759h13.317v13.317h-13.317zM2119.141 166.759h13.317v13.317h-13.317zM2140.76 166.759h13.317v13.317h-13.317z"/>
            </g>
            <g opacity=".6">
                <path d="M2049.963 189.506h13.317v13.317h-13.317zM2073.743 189.506h13.317v13.317h-13.317zM2095.361 189.506h13.317v13.317h-13.317zM2119.141 189.506h13.317v13.317h-13.317zM2140.76 189.506h13.317v13.317h-13.317z"/>
            </g>
            <g opacity=".6">
                <path d="M2049.963 212.253h13.317v13.317h-13.317zM2073.743 212.253h13.317v13.317h-13.317zM2095.361 212.253h13.317v13.317h-13.317zM2119.141 212.253h13.317v13.317h-13.317zM2140.76 212.253h13.317v13.317h-13.317z"/>
            </g>
            <g opacity=".6">
                <path d="M2049.963 235h13.317v13.317h-13.317zM2073.743 235h13.317v13.317h-13.317zM2095.361 235h13.317v13.317h-13.317zM2119.141 235h13.317v13.317h-13.317zM2140.76 235h13.317v13.317h-13.317z"/>
            </g>
            <g opacity=".6">
                <path d="M2049.963 257.747h13.317v13.317h-13.317zM2073.743 257.747h13.317v13.317h-13.317zM2095.361 257.747h13.317v13.317h-13.317zM2119.141 257.747h13.317v13.317h-13.317zM2140.76 257.747h13.317v13.317h-13.317z"/>
            </g>
            <g opacity=".6">
                <path d="M2049.963 280.494h13.317v13.317h-13.317zM2073.743 280.494h13.317v13.317h-13.317zM2095.361 280.494h13.317v13.317h-13.317zM2119.141 280.494h13.317v13.317h-13.317zM2140.76 280.494h13.317v13.317h-13.317z"/>
            </g>
            <g opacity=".48">
                <path d="M2049.963 303.241h13.317v13.317h-13.317zM2073.743 303.241h13.317v13.317h-13.317zM2095.361 303.241h13.317v13.317h-13.317zM2119.141 303.241h13.317v13.317h-13.317zM2140.76 303.241h13.317v13.317h-13.317z" opacity=".6"/>
            </g>
            <g opacity=".48">
                <path d="M2049.963 325.988h13.317v13.317h-13.317zM2073.743 325.988h13.317v13.317h-13.317zM2095.361 325.988h13.317v13.317h-13.317zM2119.141 325.988h13.317v13.317h-13.317zM2140.76 325.988h13.317v13.317h-13.317z" opacity=".6"/>
            </g>
            <g opacity=".47">
                <path d="M2049.963 348.735h13.317v13.317h-13.317zM2073.743 348.735h13.317v13.317h-13.317zM2095.361 348.735h13.317v13.317h-13.317zM2119.141 348.735h13.317v13.317h-13.317zM2140.76 348.735h13.317v13.317h-13.317z" opacity=".6"/>
            </g>
            <g opacity=".46">
                <path d="M2049.963 371.482h13.317v13.317h-13.317zM2073.743 371.482h13.317v13.317h-13.317zM2095.361 371.482h13.317v13.317h-13.317zM2119.141 371.482h13.317v13.317h-13.317zM2140.76 371.482h13.317v13.317h-13.317z" opacity=".6"/>
            </g>
            <g opacity=".44">
                <path d="M2049.963 394.229h13.317v13.317h-13.317zM2073.743 394.229h13.317v13.317h-13.317zM2095.361 394.229h13.317v13.317h-13.317zM2119.141 394.229h13.317v13.317h-13.317zM2140.76 394.229h13.317v13.317h-13.317z" opacity=".6"/>
            </g>
            <g opacity=".42">
                <path d="M2049.963 416.976h13.317v13.317h-13.317zM2073.743 416.976h13.317v13.317h-13.317zM2095.361 416.976h13.317v13.317h-13.317zM2119.141 416.976h13.317v13.317h-13.317zM2140.76 416.976h13.317v13.317h-13.317z" opacity=".6"/>
            </g>
        </g>
        <path fill="url(#g)" d="M11.972 0h80.505c.619 0 1.12.501 1.12 1.12v34.625H11.972V0z" transform="translate(2038.835 89.598)"/>
        <path fill="#CAD8E5" fill-rule="nonzero" d="M2084.006 111.869v-3.199h-3.598v3.199h-1.622v-7.62h1.622v2.993h3.598v-2.993h1.634v7.62h-1.634zm2.765-3.804c0-2.297 1.68-3.942 3.976-3.942 2.307 0 3.987 1.645 3.987 3.942 0 2.296-1.68 3.94-3.987 3.94-2.297 0-3.976-1.644-3.976-3.94zm6.295 0c0-1.428-.914-2.502-2.32-2.502-1.405 0-2.307 1.074-2.307 2.502 0 1.416.902 2.501 2.308 2.501 1.405 0 2.319-1.085 2.319-2.501zm4.295 3.804v-6.192h-2.228v-1.428h6.078v1.428h-2.216v6.192h-1.634zm4.89 0v-7.62h5.392v1.394h-3.77v1.656h3.69v1.394h-3.69v1.77h3.77v1.406h-5.392zm6.66 0v-7.62h1.622v6.192h3.222v1.428h-4.844z"/>
        <path fill="url(#h)" d="M1.12 0h20.622v33.897H0V1.12C0 .501.501 0 1.12 0z" transform="translate(2038.835 89.598)"/>
        <path fill="url(#i)" d="M.612 23.492h29.091v204.846H0V24.104c0-.338.274-.612.612-.612z" transform="translate(1924.12 194.605)"/>
        <path fill="url(#j)" d="M0 23.492h10.33L54.557.23h-14.39z" opacity=".4" transform="translate(1924.12 194.605)"/>
        <path fill="url(#k)" d="M10.462 23.492L54.494.131 98.201 23.32c.2.106.325.314.325.54v204.478H10.462V23.492z" transform="translate(1924.12 194.605)"/>
        <path fill="url(#l)" d="M18.844 35.973h8.076V47.42h-8.076V35.973zm14.536 0h8.076V47.42H33.38V35.973zm14.537 0h8.076V47.42h-8.076V35.973zm14.537 0h8.076V47.42h-8.076V35.973zm14.536 0h8.076V47.42H76.99V35.973zM18.844 53.415h8.076v11.446h-8.076V53.415zm14.536 0h8.076v11.446H33.38V53.415zm14.537 0h8.076v11.446h-8.076V53.415zm14.537 0h8.076v11.446h-8.076V53.415zm14.536 0h8.076v11.446H76.99V53.415zM18.844 70.857h8.076v11.446h-8.076V70.857zm14.536 0h8.076v11.446H33.38V70.857zm14.537 0h8.076v11.446h-8.076V70.857zm14.537 0h8.076v11.446h-8.076V70.857zm14.536 0h8.076v11.446H76.99V70.857zM18.844 88.299h8.076v11.446h-8.076V88.299zm14.536 0h8.076v11.446H33.38V88.299zm14.537 0h8.076v11.446h-8.076V88.299zm14.537 0h8.076v11.446h-8.076V88.299zm14.536 0h8.076v11.446H76.99V88.299zM18.844 105.74h8.076v11.446h-8.076V105.74zm14.536 0h8.076v11.446H33.38V105.74zm14.537 0h8.076v11.446h-8.076V105.74zm14.537 0h8.076v11.446h-8.076V105.74zm14.536 0h8.076v11.446H76.99V105.74zm-58.146 17.442h8.076v11.446h-8.076v-11.446zm14.536 0h8.076v11.446H33.38v-11.446zm14.537 0h8.076v11.446h-8.076v-11.446zm14.537 0h8.076v11.446h-8.076v-11.446zm14.536 0h8.076v11.446H76.99v-11.446zm-58.146 17.442h8.076v11.446h-8.076v-11.446zm14.536 0h8.076v11.446H33.38v-11.446zm14.537 0h8.076v11.446h-8.076v-11.446zm14.537 0h8.076v11.446h-8.076v-11.446zm14.536 0h8.076v11.446H76.99v-11.446zm-58.146 17.441h8.076v11.446h-8.076v-11.446zm14.536 0h8.076v11.446H33.38v-11.446zm14.537 0h8.076v11.446h-8.076v-11.446zm14.537 0h8.076v11.446h-8.076v-11.446zm14.536 0h8.076v11.446H76.99v-11.446zm-58.146 17.442h8.076v11.446h-8.076v-11.446zm14.536 0h8.076v11.446H33.38v-11.446zm14.537 0h8.076v11.446h-8.076v-11.446zm14.537 0h8.076v11.446h-8.076v-11.446zm14.536 0h8.076v11.446H76.99v-11.446zm-58.146 17.442h8.076v11.446h-8.076v-11.446zm14.536 0h8.076v11.446H33.38v-11.446zm14.537 0h8.076v11.446h-8.076v-11.446zm14.537 0h8.076v11.446h-8.076v-11.446zm14.536 0h8.076v11.446H76.99v-11.446z" opacity=".3" transform="translate(1924.12 194.605)"/>
        <g>
            <path fill="url(#m)" d="M0 0h135.774c.618 0 1.12.501 1.12 1.12v291.341H0V0z" transform="translate(1409.024 88.28)"/>
            <path fill="#FFF" d="M1449.223 365.577h23.902v15.165h-23.902z"/>
            <path fill="#DAE7F4" d="M1450.744 367.094h20.426v13.864h-20.426z"/>
            <path fill="#F6FAFF" d="M1460.305 367.093h1.304v13.865h-1.304z"/>
            <path fill="url(#n)" d="M104.334 0h46.684v292.461h-47.805V1.12c0-.619.502-1.12 1.12-1.12z" transform="translate(1409.024 88.28)"/>
            <g fill="#DAE7F4" opacity=".6">
                <path d="M1542.544 109.836H1553.863v11.32h-11.32zM1542.544 133.616H1553.863v11.32h-11.32zM1542.544 153.072H1553.863v11.32h-11.32zM1542.544 172.529H1553.863v11.32h-11.32zM1542.544 189.824H1553.863v11.319h-11.32zM1542.544 209.28H1553.863v11.32h-11.32zM1542.544 228.736H1553.863v11.32h-11.32zM1542.544 248.193H1553.863v11.32h-11.32zM1542.544 267.65H1553.863v11.319h-11.32zM1542.544 287.106H1553.863v11.32h-11.32zM1542.544 306.562H1553.863v11.32h-11.32zM1542.544 326.019H1553.863v11.32h-11.32zM1542.544 345.475H1553.863v11.32h-11.32z"/>
            </g>
            <g fill="#DAE7F4" opacity=".6">
                <path d="M1525.16 109.836h11.32v11.32h-11.32zM1525.16 133.616h11.32v11.32h-11.32zM1525.16 153.072h11.32v11.32h-11.32zM1525.16 172.529h11.32v11.32h-11.32zM1525.16 189.824h11.32v11.319h-11.32zM1525.16 209.28h11.32v11.32h-11.32zM1525.16 228.736h11.32v11.32h-11.32zM1525.16 248.193h11.32v11.32h-11.32zM1525.16 267.65h11.32v11.319h-11.32zM1525.16 287.106h11.32v11.32h-11.32zM1525.16 306.562h11.32v11.32h-11.32zM1525.16 326.019h11.32v11.32h-11.32zM1525.16 345.475h11.32v11.32h-11.32z"/>
            </g>
            <g fill="#DAE7F4">
                <g opacity=".6">
                    <path d="M1415.134 109.836h9.702v11.32h-9.702zM1434.59 109.836h9.703v11.32h-9.702zM1454.047 109.836h9.702v11.32h-9.702zM1473.503 109.836h9.703v11.32h-9.703zM1492.96 109.836h9.702v11.32h-9.702z"/>
                </g>
                <g opacity=".6">
                    <path d="M1415.134 132.583h9.702v11.32h-9.702zM1434.59 132.583h9.703v11.32h-9.702zM1454.047 132.583h9.702v11.32h-9.702zM1473.503 132.583h9.703v11.32h-9.703zM1492.96 132.583h9.702v11.32h-9.702z"/>
                </g>
                <g opacity=".6">
                    <path d="M1415.134 152.08h9.702v11.32h-9.702zM1434.59 152.08h9.703v11.32h-9.702zM1454.047 152.08h9.702v11.32h-9.702zM1473.503 152.08h9.703v11.32h-9.703zM1492.96 152.08h9.702v11.32h-9.702z"/>
                </g>
                <g opacity=".6">
                    <path d="M1415.134 171.578h9.702v11.319h-9.702zM1434.59 171.578h9.703v11.319h-9.702zM1454.047 171.578h9.702v11.319h-9.702zM1473.503 171.578h9.703v11.319h-9.703zM1492.96 171.578h9.702v11.319h-9.702z"/>
                </g>
                <g opacity=".6">
                    <path d="M1415.134 189.992h9.702v11.32h-9.702zM1434.59 189.992h9.703v11.32h-9.702zM1454.047 189.992h9.702v11.32h-9.702zM1473.503 189.992h9.703v11.32h-9.703zM1492.96 189.992h9.702v11.32h-9.702z"/>
                </g>
                <g opacity=".6">
                    <path d="M1415.134 209.49h9.702v11.319h-9.702zM1434.59 209.49h9.703v11.319h-9.702zM1454.047 209.49h9.702v11.319h-9.702zM1473.503 209.49h9.703v11.319h-9.703zM1492.96 209.49h9.702v11.319h-9.702z"/>
                </g>
                <g opacity=".6">
                    <path d="M1415.134 228.987h9.702v11.32h-9.702zM1434.59 228.987h9.703v11.32h-9.702zM1454.047 228.987h9.702v11.32h-9.702zM1473.503 228.987h9.703v11.32h-9.703zM1492.96 228.987h9.702v11.32h-9.702z"/>
                </g>
                <g opacity=".48">
                    <path d="M1415.134 248.484h9.702v11.32h-9.702zM1434.59 248.484h9.703v11.32h-9.702zM1454.047 248.484h9.702v11.32h-9.702zM1473.503 248.484h9.703v11.32h-9.703zM1492.96 248.484h9.702v11.32h-9.702z" opacity=".6"/>
                </g>
                <g opacity=".48">
                    <path d="M1415.134 267.982h9.702V279.3h-9.702zM1434.59 267.982h9.703V279.3h-9.702zM1454.047 267.982h9.702V279.3h-9.702zM1473.503 267.982h9.703V279.3h-9.703zM1492.96 267.982h9.702V279.3h-9.702z" opacity=".6"/>
                </g>
                <g opacity=".47">
                    <path d="M1415.134 287.479h9.702v11.32h-9.702zM1434.59 287.479h9.703v11.32h-9.702zM1454.047 287.479h9.702v11.32h-9.702zM1473.503 287.479h9.703v11.32h-9.703zM1492.96 287.479h9.702v11.32h-9.702z" opacity=".6"/>
                </g>
                <g opacity=".46">
                    <path d="M1415.134 306.976h9.702v11.32h-9.702zM1434.59 306.976h9.703v11.32h-9.702zM1454.047 306.976h9.702v11.32h-9.702zM1473.503 306.976h9.703v11.32h-9.703zM1492.96 306.976h9.702v11.32h-9.702z" opacity=".6"/>
                </g>
                <g opacity=".44">
                    <path d="M1415.134 325.39h9.702v11.32h-9.702zM1434.59 325.39h9.703v11.32h-9.702zM1454.047 325.39h9.702v11.32h-9.702zM1473.503 325.39h9.703v11.32h-9.703zM1492.96 325.39h9.702v11.32h-9.702z" opacity=".6"/>
                </g>
                <g opacity=".42">
                    <path d="M1415.134 344.888h9.702v11.32h-9.702zM1434.59 344.888h9.703v11.32h-9.702zM1454.047 344.888h9.702v11.32h-9.702zM1473.503 344.888h9.703v11.32h-9.703zM1492.96 344.888h9.702v11.32h-9.702z" opacity=".6"/>
                </g>
            </g>
        </g>
        <g>
            <path fill="url(#o)" d="M88.063 3.129h50.972l17.352 31.507H88.063z" transform="translate(1499.821 139.002)"/>
            <g transform="translate(1499.821 141.262)">
                <mask id="s" fill="#fff">
                    <use xlink:href="#p"/>
                </mask>
                <use fill="url(#q)" xlink:href="#p"/>
                <path fill="url(#r)" d="M18.286 53.338H29.1v233.588H18.286V53.338zm22.04 0H51.14v233.588H40.327V53.338zm22.041 0h10.814v233.588H62.367V53.338zm22.04 0h10.814v233.588H84.407V53.338zm22.04 0h10.814v233.588h-10.813V53.338zm22.041 0h10.814v233.588h-10.814V53.338z" mask="url(#s)"/>
                <path fill="url(#t)" d="M157.522 31.507h34.174V300.95h-35.854V33.187c0-.928.752-1.68 1.68-1.68z" mask="url(#s)"/>
                <path fill="#E4F0FC" d="M167.53 53.338h10.814v233.588h-10.813z" mask="url(#s)"/>
            </g>
            <path fill="#DCEBF8" fill-rule="nonzero" d="M1578.994 165.332v-2.913h-2.73v2.913h-2.308v-7.62h2.308v2.697h2.73v-2.696h2.308v7.62h-2.308zm5.37-3.804c0-2.342 1.817-3.941 4.17-3.941 2.353 0 4.17 1.6 4.17 3.941 0 2.342-1.817 3.941-4.17 3.941-2.353 0-4.17-1.599-4.17-3.94zm5.998 0c0-1.062-.72-1.908-1.828-1.908s-1.828.846-1.828 1.908c0 1.063.72 1.908 1.828 1.908s1.828-.845 1.828-1.908zm6.81 3.804v-5.609h-2.045v-2.01h6.386v2.01h-2.034v5.61h-2.308zm7.403 0v-7.62h5.78v1.92h-3.472v.89h3.393v1.92h-3.393v.971h3.473v1.92h-5.781zm9.049 0v-7.62h2.307v5.61h2.89v2.01h-5.197z"/>
        </g>
        <g>
            <g transform="translate(1640.664 292.631)">
                <mask id="x" fill="#fff">
                    <use xlink:href="#u"/>
                </mask>
                <use fill="url(#v)" xlink:href="#u"/>
                <path fill="url(#w)" d="M292.424 0h27.31c.372 0 .672.3.672.672v258.185c0 .37-.3.672-.672.672h-27.31a.672.672 0 0 1-.672-.672V.672c0-.371.301-.672.672-.672z" mask="url(#x)"/>
                <g mask="url(#x)">
                    <path fill="url(#y)" d="M0 14.673h110.199v7.337H0z" transform="translate(80.753 237.246)"/>
                    <path fill="url(#z)" d="M12.084 7.337h92.073v7.336H12.084z" transform="translate(80.753 237.246)"/>
                    <path fill="url(#A)" d="M33.231 0h61.863v7.337H33.23z" transform="translate(80.753 237.246)"/>
                    <path fill="url(#B)" d="M110.199 14.673h24.476v7.337h-24.476z" transform="matrix(-1 0 0 1 325.627 237.246)"/>
                    <path fill="url(#C)" d="M104.157 7.337h21.455v7.336h-21.455z" transform="matrix(-1 0 0 1 310.521 237.246)"/>
                    <path fill="url(#C)" d="M92.073 0h21.455v7.337H92.073z" transform="matrix(-1 0 0 1 286.353 237.246)"/>
                </g>
                <g mask="url(#x)">
                    <path fill="#F6FAFF" d="M125.037 190.059h42.98v47.187h-42.98z"/>
                    <path fill="#CFE5F8" d="M127.642 192.681h37.77v44.566h-37.77z"/>
                    <path fill="#F6FAFF" d="M145.876 192.681h1.302v44.566h-1.302z"/>
                </g>
                <g fill="#F6FAFF" mask="url(#x)">
                    <path d="M23.463 197.826h19.81v40.031h-19.81zM23.463 197.826h19.81l-9.905-5.165z"/>
                    <path d="M22.142 236.566h22.452v3.874H22.142z" opacity=".738"/>
                    <path d="M60.214 197.826h19.81v40.031h-19.81zM60.214 197.826h19.81l-9.905-5.165z"/>
                    <path d="M58.893 236.566h22.452v3.874H58.893z" opacity=".738"/>
                    <g>
                        <path d="M211.542 197.826h19.81v40.031h-19.81zM211.542 197.826h19.81l-9.905-5.165z"/>
                        <path d="M210.221 236.566h22.452v3.874h-22.452z" opacity=".738"/>
                    </g>
                    <g>
                        <path d="M250.455 197.826h19.81v40.031h-19.81zM250.455 197.826h19.81l-9.905-5.165z"/>
                        <path d="M249.134 236.566h22.452v3.874h-22.452z" opacity=".738"/>
                    </g>
                </g>
                <g mask="url(#x)" opacity=".738">
                    <g transform="translate(291.318 170.398)">
                        <use fill="#000" filter="url(#D)" xlink:href="#E"/>
                        <use fill="#F6FAFF" xlink:href="#E"/>
                    </g>
                </g>
                <g fill="#F6FAFF" mask="url(#x)">
                    <path d="M22.595 123.113h19.81v40.031h-19.81z"/>
                    <path d="M22.594 123.114h19.81l-9.905-5.166z"/>
                    <path d="M21.274 161.853h22.452v3.874H21.274z" opacity=".738"/>
                    <path d="M61.508 123.113h19.81v40.031h-19.81z"/>
                    <path d="M61.507 123.114h19.81l-9.905-5.166z"/>
                    <path d="M60.187 161.853h22.452v3.874H60.187z" opacity=".738"/>
                    <g>
                        <path d="M98.259 123.113h19.81v40.031h-19.81z"/>
                        <path d="M98.258 123.114h19.81l-9.905-5.166z"/>
                        <path d="M96.938 161.853h22.452v3.874H96.938z" opacity=".738"/>
                    </g>
                    <g>
                        <path d="M137.172 123.113h19.81v40.031h-19.81z"/>
                        <path d="M137.171 123.114h19.81l-9.905-5.166z"/>
                        <path d="M135.85 161.853h22.453v3.874H135.85z" opacity=".738"/>
                    </g>
                    <g>
                        <path d="M212.836 123.113h19.81v40.031h-19.81z"/>
                        <path d="M212.835 123.114h19.81l-9.905-5.166z"/>
                        <path d="M211.515 161.853h22.452v3.874h-22.452z" opacity=".738"/>
                    </g>
                    <g>
                        <path d="M249.587 123.113h19.81v40.031h-19.81z"/>
                        <path d="M249.586 123.114h19.81l-9.905-5.166z"/>
                        <path d="M248.266 161.853h22.452v3.874h-22.452z" opacity=".738"/>
                    </g>
                </g>
                <g mask="url(#x)" opacity=".738">
                    <g transform="translate(291.318 82.577)">
                        <use fill="#000" filter="url(#F)" xlink:href="#G"/>
                        <use fill="#F6FAFF" xlink:href="#G"/>
                    </g>
                </g>
                <g fill="#F6FAFF" mask="url(#x)">
                    <path d="M23.463 55.805h19.81v40.031h-19.81z"/>
                    <path d="M23.463 55.806h19.81l-9.905-5.166z"/>
                    <path d="M22.142 94.545h22.452v3.874H22.142z" opacity=".738"/>
                    <path d="M60.214 55.805h19.81v40.031h-19.81z"/>
                    <path d="M60.214 55.806h19.81l-9.905-5.166z"/>
                    <path d="M58.893 94.545h22.452v3.874H58.893z" opacity=".738"/>
                    <path d="M99.127 55.805h19.81v40.031h-19.81z"/>
                    <path d="M99.127 55.806h19.81l-9.905-5.166z"/>
                    <path d="M97.806 94.545h22.452v3.874H97.806z" opacity=".738"/>
                    <g>
                        <path d="M135.878 55.805h19.81v40.031h-19.81z"/>
                        <path d="M135.878 55.806h19.81l-9.905-5.166z"/>
                        <path d="M134.557 94.545h22.452v3.874h-22.452z" opacity=".738"/>
                    </g>
                    <g>
                        <path d="M174.791 124.984h19.81v40.03h-19.81zM174.79 124.984h19.81l-9.904-5.165z"/>
                        <path d="M173.47 163.724h22.452v3.874H173.47z" opacity=".738"/>
                    </g>
                    <g>
                        <path d="M211.542 55.805h19.81v40.031h-19.81z"/>
                        <path d="M211.542 55.806h19.81l-9.905-5.166z"/>
                        <path d="M210.221 94.545h22.452v3.874h-22.452z" opacity=".738"/>
                    </g>
                    <g>
                        <path d="M250.455 55.805h19.81v40.031h-19.81z"/>
                        <path d="M250.455 55.806h19.81l-9.905-5.166z"/>
                        <path d="M249.134 94.545h22.452v3.874h-22.452z" opacity=".738"/>
                    </g>
                </g>
            </g>
            <g stroke="#CDDEEF" stroke-linecap="round" stroke-linejoin="round" stroke-width="1.344">
                <path d="M1943.704 359.916h-6.078v20.358h6.078M1943.704 465.65h-6.078v20.358h6.078"/>
            </g>
            <path fill="url(#H)" d="M29.957 0h2.605v153.358h-2.605z" transform="translate(1942.836 346.372)"/>
            <path fill="url(#I)" d="M0 0h29.957v153.358H0z" transform="translate(1942.836 346.372)"/>
            <path fill="#E1EDFA" fill-rule="nonzero" d="M1961.855 376.344v-5.999h-6.748v5.999h-3.042v-14.29h3.042v5.613h6.748v-5.613h3.064v14.29h-3.064zm-10.476 18.866c0-4.307 3.15-7.392 7.456-7.392 4.327 0 7.477 3.085 7.477 7.392 0 4.306-3.15 7.39-7.477 7.39-4.307 0-7.456-3.084-7.456-7.39zm11.805 0c0-2.678-1.714-4.692-4.35-4.692-2.635 0-4.327 2.014-4.327 4.692 0 2.656 1.692 4.692 4.328 4.692 2.635 0 4.349-2.036 4.349-4.692zm-6.89 33.134v-11.612h-4.179v-2.678h11.398v2.678h-4.156v11.612h-3.064zm-3.31 26v-14.29h10.111v2.614h-7.07v3.106h6.92v2.614h-6.92v3.32h7.07v2.636h-10.112zm.642 26v-14.29h3.042v11.612h6.042v2.678h-9.084z"/>
            <g>
                <path fill="#E6F1FB" d="M1640.012 292.631h293.055v15.729h-293.055z"/>
                <g transform="translate(1639.144 292.631)">
                    <use fill="#000" filter="url(#J)" xlink:href="#K"/>
                    <use fill="#F6FAFF" xlink:href="#K"/>
                </g>
                <g transform="translate(1639.144 292.631)">
                    <use fill="#000" filter="url(#L)" xlink:href="#M"/>
                    <use fill="#F6FAFF" xlink:href="#M"/>
                </g>
            </g>
        </g>
        <g>
            <g transform="translate(941.508 313.35)">
                <mask id="O" fill="#fff">
                    <use xlink:href="#N"/>
                </mask>
                <use fill="url(#v)" xlink:href="#N"/>
                <path fill="url(#w)" d="M292.424 0h27.31c.372 0 .672.3.672.672v258.185c0 .37-.3.672-.672.672h-27.31a.672.672 0 0 1-.672-.672V.672c0-.371.301-.672.672-.672z" mask="url(#O)"/>
                <g mask="url(#O)">
                    <path fill="url(#y)" d="M0 14.673h110.199v7.337H0z" transform="translate(80.753 237.246)"/>
                    <path fill="url(#z)" d="M12.084 7.337h92.073v7.336H12.084z" transform="translate(80.753 237.246)"/>
                    <path fill="url(#A)" d="M33.231 0h61.863v7.337H33.23z" transform="translate(80.753 237.246)"/>
                    <path fill="url(#B)" d="M110.199 14.673h24.476v7.337h-24.476z" transform="matrix(-1 0 0 1 325.627 237.246)"/>
                    <path fill="url(#C)" d="M104.157 7.337h21.455v7.336h-21.455z" transform="matrix(-1 0 0 1 310.521 237.246)"/>
                    <path fill="url(#C)" d="M92.073 0h21.455v7.337H92.073z" transform="matrix(-1 0 0 1 286.353 237.246)"/>
                </g>
                <g mask="url(#O)">
                    <path fill="#F6FAFF" d="M125.037 190.059h42.98v47.187h-42.98z"/>
                    <path fill="#CFE5F8" d="M127.642 192.681h37.77v44.566h-37.77z"/>
                    <path fill="#F6FAFF" d="M145.876 192.681h1.302v44.566h-1.302z"/>
                </g>
                <g fill="#F6FAFF" mask="url(#O)">
                    <path d="M23.463 197.826h19.81v40.031h-19.81zM23.463 197.826h19.81l-9.905-5.165z"/>
                    <path d="M22.142 236.566h22.452v3.874H22.142z" opacity=".738"/>
                    <path d="M60.214 197.826h19.81v40.031h-19.81zM60.214 197.826h19.81l-9.905-5.165z"/>
                    <path d="M58.893 236.566h22.452v3.874H58.893z" opacity=".738"/>
                    <g>
                        <path d="M211.542 197.826h19.81v40.031h-19.81zM211.542 197.826h19.81l-9.905-5.165z"/>
                        <path d="M210.221 236.566h22.452v3.874h-22.452z" opacity=".738"/>
                    </g>
                    <g>
                        <path d="M250.455 197.826h19.81v40.031h-19.81zM250.455 197.826h19.81l-9.905-5.165z"/>
                        <path d="M249.134 236.566h22.452v3.874h-22.452z" opacity=".738"/>
                    </g>
                </g>
                <g mask="url(#O)" opacity=".738">
                    <g transform="translate(291.318 170.398)">
                        <use fill="#000" filter="url(#P)" xlink:href="#Q"/>
                        <use fill="#F6FAFF" xlink:href="#Q"/>
                    </g>
                </g>
                <g fill="#F6FAFF" mask="url(#O)">
                    <path d="M22.595 123.113h19.81v40.031h-19.81z"/>
                    <path d="M22.594 123.114h19.81l-9.905-5.166z"/>
                    <path d="M21.274 161.853h22.452v3.874H21.274z" opacity=".738"/>
                    <path d="M61.508 123.113h19.81v40.031h-19.81z"/>
                    <path d="M61.507 123.114h19.81l-9.905-5.166z"/>
                    <path d="M60.187 161.853h22.452v3.874H60.187z" opacity=".738"/>
                    <g>
                        <path d="M98.259 123.113h19.81v40.031h-19.81z"/>
                        <path d="M98.258 123.114h19.81l-9.905-5.166z"/>
                        <path d="M96.938 161.853h22.452v3.874H96.938z" opacity=".738"/>
                    </g>
                    <g>
                        <path d="M137.172 123.113h19.81v40.031h-19.81z"/>
                        <path d="M137.171 123.114h19.81l-9.905-5.166z"/>
                        <path d="M135.85 161.853h22.453v3.874H135.85z" opacity=".738"/>
                    </g>
                    <g>
                        <path d="M212.836 123.113h19.81v40.031h-19.81z"/>
                        <path d="M212.835 123.114h19.81l-9.905-5.166z"/>
                        <path d="M211.515 161.853h22.452v3.874h-22.452z" opacity=".738"/>
                    </g>
                    <g>
                        <path d="M249.587 123.113h19.81v40.031h-19.81z"/>
                        <path d="M249.586 123.114h19.81l-9.905-5.166z"/>
                        <path d="M248.266 161.853h22.452v3.874h-22.452z" opacity=".738"/>
                    </g>
                </g>
                <g mask="url(#O)" opacity=".738">
                    <g transform="translate(291.318 82.577)">
                        <use fill="#000" filter="url(#R)" xlink:href="#S"/>
                        <use fill="#F6FAFF" xlink:href="#S"/>
                    </g>
                </g>
                <g fill="#F6FAFF" mask="url(#O)">
                    <path d="M23.463 55.805h19.81v40.031h-19.81z"/>
                    <path d="M23.463 55.806h19.81l-9.905-5.166z"/>
                    <path d="M22.142 94.545h22.452v3.874H22.142z" opacity=".738"/>
                    <path d="M60.214 55.805h19.81v40.031h-19.81z"/>
                    <path d="M60.214 55.806h19.81l-9.905-5.166z"/>
                    <path d="M58.893 94.545h22.452v3.874H58.893z" opacity=".738"/>
                    <path d="M99.127 55.805h19.81v40.031h-19.81z"/>
                    <path d="M99.127 55.806h19.81l-9.905-5.166z"/>
                    <path d="M97.806 94.545h22.452v3.874H97.806z" opacity=".738"/>
                    <g>
                        <path d="M135.878 55.805h19.81v40.031h-19.81z"/>
                        <path d="M135.878 55.806h19.81l-9.905-5.166z"/>
                        <path d="M134.557 94.545h22.452v3.874h-22.452z" opacity=".738"/>
                    </g>
                    <g>
                        <path d="M174.791 124.984h19.81v40.03h-19.81zM174.79 124.984h19.81l-9.904-5.165z"/>
                        <path d="M173.47 163.724h22.452v3.874H173.47z" opacity=".738"/>
                    </g>
                    <g>
                        <path d="M211.542 55.805h19.81v40.031h-19.81z"/>
                        <path d="M211.542 55.806h19.81l-9.905-5.166z"/>
                        <path d="M210.221 94.545h22.452v3.874h-22.452z" opacity=".738"/>
                    </g>
                    <g>
                        <path d="M250.455 55.805h19.81v40.031h-19.81z"/>
                        <path d="M250.455 55.806h19.81l-9.905-5.166z"/>
                        <path d="M249.134 94.545h22.452v3.874h-22.452z" opacity=".738"/>
                    </g>
                </g>
            </g>
            <g stroke="#CDDEEF" stroke-linecap="round" stroke-linejoin="round" stroke-width="1.344">
                <path d="M1244.548 380.636h-6.078v20.357h6.078M1244.548 486.37h-6.078v20.357h6.078"/>
            </g>
            <path fill="url(#H)" d="M29.957 0h2.605v153.358h-2.605z" transform="translate(1243.68 367.091)"/>
            <path fill="url(#I)" d="M0 0h29.957v153.358H0z" transform="translate(1243.68 367.091)"/>
            <text fill="#E1EDFA" font-family="ProximaNova-Extrabld, Proxima Nova" font-size="11.424" font-weight="600" transform="translate(1243.68 367.091)">
                <tspan x="10.746" y="31.972">H</tspan> <tspan x="10.729" y="45.972">O</tspan> <tspan x="8.25" y="59.972">TE</tspan> <tspan x="11.957" y="73.972">L</tspan>
            </text>
            <g>
                <path fill="#E6F1FB" d="M940.856 313.35h293.055v15.73H940.856z"/>
                <g transform="translate(939.988 313.35)">
                    <use fill="#000" filter="url(#T)" xlink:href="#U"/>
                    <use fill="#F6FAFF" xlink:href="#U"/>
                </g>
                <g transform="translate(939.988 313.35)">
                    <use fill="#000" filter="url(#V)" xlink:href="#W"/>
                    <use fill="#F6FAFF" xlink:href="#W"/>
                </g>
            </g>
        </g>
        <g>
            <g transform="translate(1974.044 388.96)">
                <mask id="aa" fill="#fff">
                    <use xlink:href="#X"/>
                </mask>
                <use fill="url(#Y)" xlink:href="#X"/>
                <path fill="url(#Z)" d="M-8.463 1.088h23.016c.371 0 .672.3.672.672v196.147c0 .371-.3.672-.672.672H-8.463a.672.672 0 0 1-.672-.672V1.76c0-.372.3-.672.672-.672z" mask="url(#aa)"/>
                <g mask="url(#aa)">
                    <path fill="#AED0F0" d="M100.704 174.001h31.538v25.013h-31.538z"/>
                    <g transform="translate(93.09 158.776)">
                        <use fill="#B1C9DF" xlink:href="#ab"/>
                        <use fill="#000" filter="url(#ac)" xlink:href="#ab"/>
                    </g>
                    <path fill="#B5D4F2" d="M104.29 158.776h24.364c6.185 0 11.2 5.015 11.2 11.2v4.026H93.09v-4.026c0-6.185 5.014-11.2 11.2-11.2z"/>
                    <path fill="#C0DAF4" d="M122.779 158.776h12.4c6.185 0 11.2 5.015 11.2 11.2v4.026h-34.8v-4.026c0-6.185 5.014-11.2 11.2-11.2z"/>
                </g>
                <g mask="url(#aa)" opacity=".914">
                    <path fill="#CBE1F7" d="M44.62 31.538a6.991 6.991 0 0 1 6.99 6.991v17.584H37.629V38.53a6.991 6.991 0 0 1 6.991-6.991zM74.885 31.538a6.991 6.991 0 0 1 6.991 6.991v17.584H67.893V38.53a6.991 6.991 0 0 1 6.992-6.991zM105.15 31.538a6.991 6.991 0 0 1 6.992 6.991v17.584H98.159V38.53a6.991 6.991 0 0 1 6.991-6.991zM135.416 31.538a6.991 6.991 0 0 1 6.991 6.991v17.584h-13.982V38.53a6.991 6.991 0 0 1 6.991-6.991zM165.682 31.538a6.991 6.991 0 0 1 6.991 6.991v17.584H158.69V38.53a6.991 6.991 0 0 1 6.992-6.991zM195.947 31.538a6.991 6.991 0 0 1 6.992 6.991v17.584h-13.983V38.53a6.991 6.991 0 0 1 6.991-6.991z"/>
                </g>
                <g mask="url(#aa)" opacity=".914">
                    <path fill="#CBE1F7" d="M44.62 73.95a6.991 6.991 0 0 1 6.99 6.992v17.584H37.629V80.942a6.991 6.991 0 0 1 6.991-6.991zM74.885 73.95a6.991 6.991 0 0 1 6.991 6.992v17.584H67.893V80.942a6.991 6.991 0 0 1 6.992-6.991zM105.15 73.95a6.991 6.991 0 0 1 6.992 6.992v17.584H98.159V80.942a6.991 6.991 0 0 1 6.991-6.991zM135.416 73.95a6.991 6.991 0 0 1 6.991 6.992v17.584h-13.982V80.942a6.991 6.991 0 0 1 6.991-6.991zM165.682 73.95a6.991 6.991 0 0 1 6.991 6.992v17.584H158.69V80.942a6.991 6.991 0 0 1 6.992-6.991zM195.947 73.95a6.991 6.991 0 0 1 6.992 6.992v17.584h-13.983V80.942a6.991 6.991 0 0 1 6.991-6.991z"/>
                </g>
                <g mask="url(#aa)" opacity=".914">
                    <path fill="#CBE1F7" d="M44.62 116.364a6.991 6.991 0 0 1 6.99 6.99v17.585H37.629v-17.584a6.991 6.991 0 0 1 6.991-6.991zM74.885 116.364a6.991 6.991 0 0 1 6.991 6.99v17.585H67.893v-17.584a6.991 6.991 0 0 1 6.992-6.991zM105.15 116.364a6.991 6.991 0 0 1 6.992 6.99v17.585H98.159v-17.584a6.991 6.991 0 0 1 6.991-6.991zM135.416 116.364a6.991 6.991 0 0 1 6.991 6.99v17.585h-13.982v-17.584a6.991 6.991 0 0 1 6.991-6.991zM165.682 116.364a6.991 6.991 0 0 1 6.991 6.99v17.585H158.69v-17.584a6.991 6.991 0 0 1 6.992-6.991zM195.947 116.364a6.991 6.991 0 0 1 6.992 6.99v17.585h-13.983v-17.584a6.991 6.991 0 0 1 6.991-6.991z"/>
                </g>
                <g mask="url(#aa)" opacity=".914">
                    <path fill="#CBE1F7" d="M44.62 158.776a6.991 6.991 0 0 1 6.99 6.992v17.584H37.629v-17.584a6.991 6.991 0 0 1 6.991-6.992zM74.885 158.776a6.991 6.991 0 0 1 6.991 6.992v17.584H67.893v-17.584a6.991 6.991 0 0 1 6.992-6.992zM195.947 158.776a6.991 6.991 0 0 1 6.992 6.992v17.584h-13.983v-17.584a6.991 6.991 0 0 1 6.991-6.992zM165.682 158.776a6.991 6.991 0 0 1 6.991 6.992v17.584H158.69v-17.584a6.991 6.991 0 0 1 6.992-6.992z"/>
                </g>
            </g>
            <path fill="url(#ad)" d="M0 31.538L52.445 0h124.357l38.308 31.538z" transform="translate(1974.696 358.509)"/>
            <path fill="#E6F1FB" d="M1987.747 391.134l38.307-32.625h138.494l38.308 32.625z"/>
            <g>
                <path fill="url(#ae)" d="M.217.87h68.514v35.888H.217z" transform="translate(2035.38 361.99)"/>
                <path fill="url(#af)" d="M3.48.87h112.014v35.888H3.48z" transform="translate(2035.38 361.99)"/>
                <path fill="#DCEBF8" fill-rule="nonzero" d="M2078.529 391.431v-3.199h-3.599v3.2h-1.622v-7.62h1.622v2.992h3.599v-2.993h1.633v7.62h-1.633zm5.004-3.804c0-2.296 1.68-3.941 3.976-3.941 2.307 0 3.987 1.645 3.987 3.94 0 2.297-1.68 3.942-3.987 3.942-2.296 0-3.976-1.645-3.976-3.941zm6.295 0c0-1.428-.914-2.502-2.32-2.502-1.404 0-2.307 1.074-2.307 2.502 0 1.416.903 2.502 2.308 2.502 1.405 0 2.319-1.086 2.319-2.502zm6.535 3.804v-6.192h-2.227v-1.428h6.077v1.428h-2.216v6.192h-1.634zm7.13 0v-7.62h5.392v1.394h-3.77v1.656h3.69v1.394h-3.69v1.77h3.77v1.406h-5.392zm8.9 0v-7.62h1.622v6.192h3.222v1.428h-4.844z"/>
                <path fill="#E6F1FB" d="M2057 378l-3.527 1.854.674-3.927-2.853-2.781 3.943-.573L2057 369l1.763 3.573 3.943.573-2.853 2.781.674 3.927L2057 378zm19-1l-3.527 1.854.674-3.927-2.853-2.781 3.943-.573L2076 368l1.763 3.573 3.943.573-2.853 2.781.674 3.927L2076 377zm20 0l-3.527 1.854.674-3.927-2.853-2.781 3.943-.573L2096 368l1.763 3.573 3.943.573-2.853 2.781.674 3.927L2096 377zm18 0l-3.527 1.854.674-3.927-2.853-2.781 3.943-.573L2114 368l1.763 3.573 3.943.573-2.853 2.781.674 3.927L2114 377zm20 0l-3.527 1.854.674-3.927-2.853-2.781 3.943-.573L2134 368l1.763 3.573 3.943.573-2.853 2.781.674 3.927L2134 377z"/>
            </g>
        </g>
        <g>
            <path fill="url(#ag)" d="M61.668 30.431c-9.524-4.612-14.286-9.533-14.286-14.762 0-7.844-8.495-14.082-17.721-15.156-9.226-1.075-18.043.114-25.73 8.534-7.688 8.42-1.716 19.645 1.398 21.384 3.113 1.74 12.811 5.606 18.572-.675 5.76-6.28 10.715-2.413 13.435 0 2.72 2.414 17.082 5.892 22.436 4.153 3.57-1.16 4.201-2.319 1.896-3.478z" transform="translate(1590.607 532.462)"/>
            <path fill="url(#ah)" d="M12.08 19.096l8.668-.837 4.24-12.79c.049-.15.19-.252.348-.252h38.648c.542 0 1.055.238 1.404.652l10.46 12.39h16.768c.609 0 1.102.493 1.102 1.102v14.18a.367.367 0 0 1-.367.368H12.115a.367.367 0 0 1-.368-.368v-14.08c0-.188.144-.347.332-.365z" transform="translate(1650.546 532.462)"/>
            <g transform="translate(1652.275 537.679)">
                <mask id="ak" fill="#fff">
                    <use xlink:href="#ai"/>
                </mask>
                <use fill="url(#aj)" xlink:href="#ai"/>
                <ellipse cx="18.587" cy="27.388" stroke="#000" stroke-width="1.102" mask="url(#ak)" rx="7.035" ry="7.072"/>
                <ellipse cx="64.406" cy="27.388" stroke="#000" stroke-width="1.102" mask="url(#ak)" rx="7.035" ry="7.072"/>
            </g>
            <path fill="url(#al)" d="M50.251.307l4.213 4.91h-8.645L43.294.313a.092.092 0 0 1 .082-.134h6.596c.108 0 .21.047.28.128z" transform="translate(1650.546 532.462)"/>
            <path fill="url(#am)" d="M43.515.069l4.033 5.148h-8.645L42.936.069a.367.367 0 0 1 .579 0z" transform="translate(1650.546 532.462)"/>
            <path fill="#CBE1F5" d="M1744.907 562.893h-13.724c-.609 0-1.102.493-1.102 1.102v1.64c0 .407.329.736.735.736h14.09c.407 0 .736-.33.736-.735v-2.008a.735.735 0 0 0-.735-.735z"/>
            <path fill="#CBE3F7" d="M1730.816 562.893h4.452v2.743c0 .406-.33.735-.735.735h-3.717a.735.735 0 0 1-.735-.735v-2.008c0-.406.329-.735.735-.735z"/>
            <path fill="#CBE1F5" d="M1651.281 562.893h4.452v2.743c0 .406-.329.735-.735.735h-3.717a.735.735 0 0 1-.735-.735v-2.008c0-.406.33-.735.735-.735z"/>
            <path fill="#EAF4FC" d="M1743.913 556.807v3.477h-4.323v-2.608l4.323-.87zm-9.51 0l4.323.87v2.607h-4.323v-3.477z"/>
            <path fill="#C9E1F7" d="M1650.914 555.937h1.361v3.478h-1.361a.367.367 0 0 1-.368-.367v-2.743c0-.203.165-.368.368-.368z"/>
            <path fill="url(#an)" d="M24.206 7.825H36.31V18.26H18.155l6.051-10.434zm28.529 0L61.38 18.26H39.767V7.825h12.968z" transform="translate(1650.546 532.462)"/>
            <path fill="url(#ao)" d="M66.29 7.951h5.904l-7.313 8.695-6.33-.142z" opacity=".5" transform="matrix(-1 0 0 1 1781.29 532.462)"/>
            <g fill="#B9D4EF" transform="translate(1664.378 554.198)">
                <ellipse cx="6.484" cy="10.868" stroke="#7B9CC2" stroke-width="1.102" rx="5.933" ry="5.97"/>
                <ellipse cx="52.303" cy="10.868" stroke="#7B9CC2" stroke-width="1.102" rx="5.933" ry="5.97"/>
                <path d="M14.697 0h3.458v3.478h-3.458V0zm6.916 0h3.458v3.478h-3.458V0zm-3.458 3.478h3.458v3.478h-3.458V3.478zm6.916 0h3.458v3.478H25.07V3.478zM28.529 0h3.458v3.478h-3.458V0zm3.458 3.478h3.458v3.478h-3.458V3.478zM35.445 0h3.458v3.478h-3.458V0zm3.458 3.478h3.458v3.478h-3.458V3.478z"/>
            </g>
        </g>
        <g>
            <path fill="url(#ag)" d="M61.668 30.431c-9.524-4.612-14.286-9.533-14.286-14.762 0-7.844-8.495-14.082-17.721-15.156-9.226-1.075-18.043.114-25.73 8.534-7.688 8.42-1.716 19.645 1.398 21.384 3.113 1.74 12.811 5.606 18.572-.675 5.76-6.28 10.715-2.413 13.435 0 2.72 2.414 17.082 5.892 22.436 4.153 3.57-1.16 4.201-2.319 1.896-3.478z" transform="matrix(-1 0 0 1 1006.143 550.015)"/>
            <path fill="url(#ah)" d="M12.08 19.096l8.668-.837 4.24-12.79c.049-.15.19-.252.348-.252h38.648c.542 0 1.055.238 1.404.652l10.46 12.39h16.768c.609 0 1.102.493 1.102 1.102v14.18a.367.367 0 0 1-.367.368H12.115a.367.367 0 0 1-.368-.368v-14.08c0-.188.144-.347.332-.365z" transform="matrix(-1 0 0 1 946.204 550.015)"/>
            <g transform="matrix(-1 0 0 1 944.475 555.231)">
                <mask id="aq" fill="#fff">
                    <use xlink:href="#ap"/>
                </mask>
                <use fill="url(#aj)" xlink:href="#ap"/>
                <ellipse cx="18.587" cy="27.388" stroke="#000" stroke-width="1.102" mask="url(#aq)" rx="7.035" ry="7.072"/>
                <ellipse cx="64.406" cy="27.388" stroke="#000" stroke-width="1.102" mask="url(#aq)" rx="7.035" ry="7.072"/>
            </g>
            <path fill="url(#al)" d="M50.251.307l4.213 4.91h-8.645L43.294.313a.092.092 0 0 1 .082-.134h6.596c.108 0 .21.047.28.128z" transform="matrix(-1 0 0 1 946.204 550.015)"/>
            <path fill="url(#am)" d="M43.515.069l4.033 5.148h-8.645L42.936.069a.367.367 0 0 1 .579 0z" transform="matrix(-1 0 0 1 946.204 550.015)"/>
            <path fill="#CBE1F5" d="M851.843 580.446h13.724c.608 0 1.102.493 1.102 1.102v1.64c0 .407-.329.736-.735.736h-14.091a.735.735 0 0 1-.735-.735v-2.008c0-.406.33-.735.735-.735z"/>
            <path fill="#CBE3F7" d="M865.934 580.446h-4.452v2.743c0 .406.33.735.735.735h3.717c.406 0 .735-.33.735-.735v-2.008a.735.735 0 0 0-.735-.735z"/>
            <path fill="#CBE1F5" d="M945.469 580.446h-4.453v2.743c0 .406.33.735.735.735h3.718c.405 0 .735-.33.735-.735v-2.008a.735.735 0 0 0-.735-.735z"/>
            <path fill="#EAF4FC" d="M852.837 574.36v3.477h4.323v-2.608l-4.323-.87zm9.51 0l-4.323.87v2.607h4.323v-3.477z"/>
            <path fill="#C9E1F7" d="M945.836 573.49h-1.361v3.478h1.361a.367.367 0 0 0 .368-.368v-2.742a.368.368 0 0 0-.368-.368z"/>
            <path fill="url(#an)" d="M24.206 7.825H36.31V18.26H18.155l6.051-10.434zm28.529 0L61.38 18.26H39.767V7.825h12.968z" transform="matrix(-1 0 0 1 946.204 550.015)"/>
            <path fill="url(#ao)" d="M66.29 7.951h5.904l-7.313 8.695-6.33-.142z" opacity=".5" transform="translate(815.46 550.015)"/>
            <g fill="#B9D4EF" transform="matrix(-1 0 0 1 932.371 571.751)">
                <ellipse cx="6.484" cy="10.868" stroke="#7B9CC2" stroke-width="1.102" rx="5.933" ry="5.97"/>
                <ellipse cx="52.303" cy="10.868" stroke="#7B9CC2" stroke-width="1.102" rx="5.933" ry="5.97"/>
                <path d="M14.697 0h3.458v3.478h-3.458V0zm6.916 0h3.458v3.478h-3.458V0zm-3.458 3.478h3.458v3.478h-3.458V3.478zm6.916 0h3.458v3.478H25.07V3.478zM28.529 0h3.458v3.478h-3.458V0zm3.458 3.478h3.458v3.478h-3.458V3.478zM35.445 0h3.458v3.478h-3.458V0zm3.458 3.478h3.458v3.478h-3.458V3.478z"/>
            </g>
        </g>
        <g>
            <path fill="url(#i)" d="M.612 23.492h29.091v204.846H0V24.104c0-.338.274-.612.612-.612z" transform="translate(1226.967 381.368)"/>
            <path fill="url(#j)" d="M0 23.492h10.33L54.557.23h-14.39z" opacity=".4" transform="translate(1226.967 381.368)"/>
            <path fill="url(#k)" d="M10.462 23.492L54.494.131 98.201 23.32c.2.106.325.314.325.54v204.478H10.462V23.492z" transform="translate(1226.967 381.368)"/>
            <path fill="url(#l)" d="M18.844 35.973h8.076V47.42h-8.076V35.973zm14.536 0h8.076V47.42H33.38V35.973zm14.537 0h8.076V47.42h-8.076V35.973zm14.537 0h8.076V47.42h-8.076V35.973zm14.536 0h8.076V47.42H76.99V35.973zM18.844 53.415h8.076v11.446h-8.076V53.415zm14.536 0h8.076v11.446H33.38V53.415zm14.537 0h8.076v11.446h-8.076V53.415zm14.537 0h8.076v11.446h-8.076V53.415zm14.536 0h8.076v11.446H76.99V53.415zM18.844 70.857h8.076v11.446h-8.076V70.857zm14.536 0h8.076v11.446H33.38V70.857zm14.537 0h8.076v11.446h-8.076V70.857zm14.537 0h8.076v11.446h-8.076V70.857zm14.536 0h8.076v11.446H76.99V70.857zM18.844 88.299h8.076v11.446h-8.076V88.299zm14.536 0h8.076v11.446H33.38V88.299zm14.537 0h8.076v11.446h-8.076V88.299zm14.537 0h8.076v11.446h-8.076V88.299zm14.536 0h8.076v11.446H76.99V88.299zM18.844 105.74h8.076v11.446h-8.076V105.74zm14.536 0h8.076v11.446H33.38V105.74zm14.537 0h8.076v11.446h-8.076V105.74zm14.537 0h8.076v11.446h-8.076V105.74zm14.536 0h8.076v11.446H76.99V105.74zm-58.146 17.442h8.076v11.446h-8.076v-11.446zm14.536 0h8.076v11.446H33.38v-11.446zm14.537 0h8.076v11.446h-8.076v-11.446zm14.537 0h8.076v11.446h-8.076v-11.446zm14.536 0h8.076v11.446H76.99v-11.446zm-58.146 17.442h8.076v11.446h-8.076v-11.446zm14.536 0h8.076v11.446H33.38v-11.446zm14.537 0h8.076v11.446h-8.076v-11.446zm14.537 0h8.076v11.446h-8.076v-11.446zm14.536 0h8.076v11.446H76.99v-11.446zm-58.146 17.441h8.076v11.446h-8.076v-11.446zm14.536 0h8.076v11.446H33.38v-11.446zm14.537 0h8.076v11.446h-8.076v-11.446zm14.537 0h8.076v11.446h-8.076v-11.446zm14.536 0h8.076v11.446H76.99v-11.446zm-58.146 17.442h8.076v11.446h-8.076v-11.446zm14.536 0h8.076v11.446H33.38v-11.446zm14.537 0h8.076v11.446h-8.076v-11.446zm14.537 0h8.076v11.446h-8.076v-11.446zm14.536 0h8.076v11.446H76.99v-11.446zm-58.146 17.442h8.076v11.446h-8.076v-11.446zm14.536 0h8.076v11.446H33.38v-11.446zm14.537 0h8.076v11.446h-8.076v-11.446zm14.537 0h8.076v11.446h-8.076v-11.446zm14.536 0h8.076v11.446H76.99v-11.446z" opacity=".3" transform="translate(1226.967 381.368)"/>
        </g>
        <g>
            <path fill="url(#ar)" d="M36.012 83.847h251.126c.53 0 .96.43.96.96v146.938H36.012V83.847z" transform="translate(1382.183 349.568)"/>
            <path fill="url(#as)" d="M0 21.59h319.12v10.795H0z" transform="translate(1382.183 581.341)"/>
            <path fill="url(#at)" d="M8.617 10.795h306.194V21.59H8.617z" transform="translate(1382.183 581.341)"/>
            <path fill="url(#au)" d="M23.697 0h284.651v10.795H23.697z" transform="translate(1382.183 581.341)"/>
            <path fill="url(#av)" d="M319.12 21.59h32.314v10.795H319.12z" transform="matrix(-1 0 0 1 2052.736 581.341)"/>
            <path fill="url(#aw)" d="M314.811 10.795h30.16V21.59h-30.16z" transform="matrix(-1 0 0 1 2041.965 581.341)"/>
            <path fill="url(#aw)" d="M306.194 0h30.16v10.795h-30.16z" transform="matrix(-1 0 0 1 2024.731 581.341)"/>
            <path fill="url(#ax)" d="M0 2.49C4.057.968 8.13.414 12.218.83c6.133.625 8.688 4.305 12.218 4.151C26.789 4.88 30.754 3.218 36.33 0v57.283c-3.903 2.767-7.868 4.151-11.895 4.151-6.041 0-6.133-3.53-12.218-4.151-4.057-.413-8.13.14-12.218 1.66V2.491z" transform="translate(1614.368 349.568)"/>
            <path fill="url(#ay)" d="M14.407 18.768c-1.84 0-4.631.417-8.317 1.26l-1.035-4.536c8.992-2.06 13.737-2.106 14.959 1.37.097.06.246.13.44.2.662.237 1.624.389 2.705.417 2.198.056 4.378-.42 5.103-1.007l2.918 3.62c-3.702 2.998-13.473 2.86-15.364-1.198-.3-.076-.776-.126-1.41-.126zm.929 12.414c-1.84 0-4.631.417-8.317 1.261l-1.035-4.537c8.992-2.06 13.737-2.105 14.959 1.371.097.06.246.13.44.2.662.236 1.624.388 2.705.416 2.198.057 4.378-.42 5.103-1.006l2.918 3.62c-3.703 2.997-13.473 2.86-15.364-1.198-.3-.076-.776-.127-1.41-.127zm.928 12.101c-1.84 0-4.63.417-8.317 1.261l-1.034-4.537c8.992-2.06 13.737-2.106 14.958 1.37.098.06.247.13.441.2.661.237 1.624.389 2.705.417 2.198.056 4.377-.42 5.102-1.007l2.918 3.621c-3.702 2.997-13.472 2.86-15.363-1.198-.3-.077-.776-.127-1.41-.127z" transform="translate(1614.368 349.568)"/>
            <g transform="translate(1609.724 351.43)">
                <path fill="url(#az)" d="M2.369 0h.835c.795 0 1.44.645 1.44 1.44v81.403H.929V1.44C.929.645 1.573 0 2.369 0z"/>
                <rect width="5.573" height="2.792" fill="#D1E5F7" rx="1.396"/>
            </g>
            <g>
                <path fill="url(#ax)" d="M0 2.49C4.057.968 8.13.414 12.218.83c6.133.625 8.688 4.305 12.218 4.151C26.789 4.88 30.754 3.218 36.33 0v57.283c-3.903 2.767-7.868 4.151-11.895 4.151-6.041 0-6.133-3.53-12.218-4.151-4.057-.413-8.13.14-12.218 1.66V2.491z" transform="translate(1540.066 349.568)"/>
                <path fill="url(#ay)" d="M14.407 18.768c-1.84 0-4.631.417-8.317 1.26l-1.035-4.536c8.992-2.06 13.737-2.106 14.959 1.37.097.06.246.13.44.2.662.237 1.624.389 2.705.417 2.198.056 4.378-.42 5.103-1.007l2.918 3.62c-3.702 2.998-13.473 2.86-15.364-1.198-.3-.076-.776-.126-1.41-.126zm.929 12.414c-1.84 0-4.631.417-8.317 1.261l-1.035-4.537c8.992-2.06 13.737-2.105 14.959 1.371.097.06.246.13.44.2.662.236 1.624.388 2.705.416 2.198.057 4.378-.42 5.103-1.006l2.918 3.62c-3.703 2.997-13.473 2.86-15.364-1.198-.3-.076-.776-.127-1.41-.127zm.928 12.101c-1.84 0-4.63.417-8.317 1.261l-1.034-4.537c8.992-2.06 13.737-2.106 14.958 1.37.098.06.247.13.441.2.661.237 1.624.389 2.705.417 2.198.056 4.377-.42 5.102-1.007l2.918 3.621c-3.702 2.997-13.472 2.86-15.363-1.198-.3-.077-.776-.127-1.41-.127z" transform="translate(1540.066 349.568)"/>
                <g transform="translate(1535.422 351.43)">
                    <path fill="url(#az)" d="M2.369 0h.835c.795 0 1.44.645 1.44 1.44v81.403H.929V1.44C.929.645 1.573 0 2.369 0z"/>
                    <rect width="5.573" height="2.792" fill="#D1E5F7" rx="1.396"/>
                </g>
            </g>
            <g>
                <path fill="url(#ax)" d="M0 2.49C4.057.968 8.13.414 12.218.83c6.133.625 8.688 4.305 12.218 4.151C26.789 4.88 30.754 3.218 36.33 0v57.283c-3.903 2.767-7.868 4.151-11.895 4.151-6.041 0-6.133-3.53-12.218-4.151-4.057-.413-8.13.14-12.218 1.66V2.491z" transform="translate(1462.049 349.568)"/>
                <path fill="url(#ay)" d="M14.407 18.768c-1.84 0-4.631.417-8.317 1.26l-1.035-4.536c8.992-2.06 13.737-2.106 14.959 1.37.097.06.246.13.44.2.662.237 1.624.389 2.705.417 2.198.056 4.378-.42 5.103-1.007l2.918 3.62c-3.702 2.998-13.473 2.86-15.364-1.198-.3-.076-.776-.126-1.41-.126zm.929 12.414c-1.84 0-4.631.417-8.317 1.261l-1.035-4.537c8.992-2.06 13.737-2.105 14.959 1.371.097.06.246.13.44.2.662.236 1.624.388 2.705.416 2.198.057 4.378-.42 5.103-1.006l2.918 3.62c-3.703 2.997-13.473 2.86-15.364-1.198-.3-.076-.776-.127-1.41-.127zm.928 12.101c-1.84 0-4.63.417-8.317 1.261l-1.034-4.537c8.992-2.06 13.737-2.106 14.958 1.37.098.06.247.13.441.2.661.237 1.624.389 2.705.417 2.198.056 4.377-.42 5.102-1.007l2.918 3.621c-3.702 2.997-13.472 2.86-15.363-1.198-.3-.077-.776-.127-1.41-.127z" transform="translate(1462.049 349.568)"/>
                <g transform="translate(1457.405 351.43)">
                    <path fill="url(#az)" d="M2.369 0h.835c.795 0 1.44.645 1.44 1.44v81.403H.929V1.44C.929.645 1.573 0 2.369 0z"/>
                    <rect width="5.573" height="2.792" fill="#D1E5F7" rx="1.396"/>
                </g>
            </g>
            <path fill="url(#aA)" d="M53.855 114.49h218.261v102.39H53.855V114.49zm208.974 95.875h1.857v1.862h.929v4.654h-13.932v-4.654h.93v-1.862h1.857v-88.428h-1.858v-2.792h-.929v-4.654h13.932v4.654h-1.858.93v2.792h-1.858v88.428zm-26.006 0h1.858v1.862h.928v4.654h-13.931v-4.654h.929v-1.862h1.857v-88.428h-1.857v-2.792h-.93v-4.654h13.932v4.654h-1.857.929v2.792h-1.858v88.428zm-26.006 0h1.858v1.862h.929v4.654h-13.932v-4.654h.929v-1.862h1.857v-88.428h-1.857v-2.792h-.929v-4.654h13.932v4.654h-1.858.929v2.792h-1.858v88.428zm-26.005 0h1.857v1.862h.929v4.654h-13.932v-4.654h.93v-1.862h1.857v-88.428h-1.858v-2.792h-.929v-4.654h13.932v4.654h-1.858.93v2.792h-1.858v88.428zm-29.721 0h1.857v1.862h.93v4.654h-13.932v-4.654h.928v-1.862h1.858v-88.428h-1.858v-2.792h-.928v-4.654h13.931v4.654h-1.857.928v2.792h-1.857v88.428zm-29.72 0h1.857v1.862h.928v4.654h-13.931v-4.654h.929v-1.862h1.857v-88.428h-1.857v-2.792h-.93v-4.654h13.932v4.654H126.3h.929v2.792h-1.858v88.428zm-26.007 0h1.858v1.862h.929v4.654H88.219v-4.654h.929v-1.862h1.857v-88.428h-1.857v-2.792h-.929v-4.654h13.932v4.654h-1.858.929v2.792h-1.858v88.428zm-29.72 0H71.5v1.862h.929v4.654H58.498v-4.654h.93v-1.862h1.857v-88.428h-1.858v-2.792h-.929v-4.654H72.43v4.654h-1.858.93v2.792h-1.858v88.428z" transform="translate(1382.183 349.568)"/>
            <path fill="url(#aB)" d="M287.897 83.847h23.435v147.898h-24.395V84.807c0-.53.43-.96.96-.96z" transform="translate(1382.183 349.568)"/>
            <g>
                <path fill="url(#aC)" d="M0 0h249.84v6.516H0z" transform="translate(1419.32 428.687)"/>
                <path fill="url(#aD)" d="M249.84 0h24.148v6.516H249.84z" transform="matrix(-1 0 0 1 1943.148 428.687)"/>
            </g>
        </g>
        <g>
            <path fill="url(#aE)" d="M.03 0h110.023c.842 0 1.525.683 1.525 1.525V48.64H.03V0z" transform="translate(1394.15 256.384)"/>
            <path fill="#CAD8E5" fill-rule="nonzero" d="M1438.871 275.72v-3.71h-4.592v3.71h-1.245v-8.302h1.245v3.485h4.592v-3.485h1.245v8.302h-1.245zm2.739-4.145c0-2.464 1.705-4.294 4.182-4.294 2.477 0 4.182 1.83 4.182 4.294 0 2.464-1.705 4.294-4.182 4.294-2.477 0-4.182-1.83-4.182-4.294zm7.082 0c0-1.83-1.145-3.186-2.9-3.186-1.78 0-2.9 1.356-2.9 3.186 0 1.817 1.12 3.186 2.9 3.186 1.755 0 2.9-1.369 2.9-3.186zm4.493 4.145v-7.207h-2.577v-1.095h6.386v1.095h-2.564v7.207h-1.245zm5.103 0v-8.302h5.576v1.095h-4.331v2.427h4.244v1.095h-4.244v2.59h4.331v1.095h-5.576zm7.132 0v-8.302h1.244v7.206h3.772v1.096h-5.016z"/>
            <path fill="url(#aF)" d="M114.677 0h25.753v39.224h-27.279V1.525c0-.842.683-1.525 1.526-1.525z" transform="matrix(-1 0 0 1 1647.732 256.384)"/>
            <path fill="url(#aG)" d="M4.243.82h106.414c.842 0 1.525.683 1.525 1.526v328.083H4.243V.82z" transform="translate(1370.034 285.393)"/>
            <path fill="url(#aH)" d="M100.308.746h28.251v329.608H98.783V2.271c0-.842.683-1.525 1.525-1.525z" transform="translate(1370.034 285.393)"/>
            <g fill="#C2DAF0">
                <path d="M1374.277 439.086h94.54v5.22h-94.54z" opacity=".21"/>
                <path d="M1468.817 439.086h29.776v5.22h-29.776z" opacity=".56"/>
            </g>
            <path fill="#D0E3F5" d="M1371.142 431.629h100.653v8.948h-100.653a.587.587 0 0 1-.587-.586v-7.776c0-.324.263-.586.587-.586z"/>
            <path fill="#C2DAF0" d="M1468.891 431.554h32.168c.324 0 .586.263.586.587v7.775a.587.587 0 0 1-.586.587h-32.168v-8.949z"/>
            <g fill="#C2DAF0">
                <path d="M1374.277 508.512h94.54v5.22h-94.54z" opacity=".21"/>
                <path d="M1468.817 508.512h29.776v5.22h-29.776z" opacity=".56"/>
            </g>
            <path fill="#D0E3F5" d="M1371.142 501.055h100.653v8.949h-100.653a.587.587 0 0 1-.587-.587v-7.775c0-.324.263-.587.587-.587z"/>
            <path fill="#C2DAF0" d="M1468.891 500.98h32.168c.324 0 .586.263.586.587v7.776a.587.587 0 0 1-.586.586h-32.168v-8.948z"/>
            <g>
                <g fill="#C2DAF0">
                    <path d="M1374.277 367.571h94.54v5.22h-94.54z" opacity=".21"/>
                    <path d="M1468.817 367.571h29.776v5.22h-29.776z" opacity=".56"/>
                </g>
                <path fill="#D0E3F5" d="M1371.142 360.114h100.653v8.949h-100.653a.587.587 0 0 1-.587-.587V360.7c0-.324.263-.587.587-.587z"/>
                <path fill="#C2DAF0" d="M1468.891 360.04h32.168c.324 0 .586.262.586.586v7.775a.587.587 0 0 1-.586.587h-32.168v-8.949z"/>
            </g>
            <g>
                <g fill="#C2DAF0">
                    <path d="M1374.277 293h94.54v5.22h-94.54z" opacity=".21"/>
                    <path d="M1468.817 293h29.776v5.22h-29.776z" opacity=".56"/>
                </g>
                <path fill="#D0E3F5" d="M1371.142 285.542h100.653v8.949h-100.653a.587.587 0 0 1-.587-.587v-7.775c0-.324.263-.587.587-.587z"/>
                <path fill="#C2DAF0" d="M1468.891 285.467h32.168c.324 0 .586.263.586.587v7.775a.587.587 0 0 1-.586.587h-32.168v-8.949z"/>
            </g>
            <g>
                <path fill="url(#aI)" d="M.074 0h124.28c.842 0 1.525.683 1.525 1.525V35.87H.074V0z" transform="translate(1369.81 579.878)"/>
                <path fill="url(#aJ)" d="M95.32.15h40.981v35.868H93.795V1.674c0-.842.683-1.525 1.526-1.525z" transform="matrix(-1 0 0 1 1599.907 579.878)"/>
                <path fill="#E5F2FE" d="M1439.03 595.985h-27.188v19.112h27.187z"/>
                <g transform="matrix(-1 0 0 1 1445.591 584.352)">
                    <use fill="#C3D4E4" xlink:href="#aK"/>
                    <use fill="#000" filter="url(#aL)" xlink:href="#aK"/>
                </g>
                <path fill="#C4DBF1" d="M1433.958 584.352h-17.045c-6.425 0-11.634 5.209-11.634 11.633h40.312c0-6.424-5.208-11.633-11.633-11.633z"/>
                <path fill="#CFE3F6" d="M1418.02 584.352h-6.732c-6.425 0-11.634 5.209-11.634 11.633h30c0-6.424-5.208-11.633-11.633-11.633z"/>
            </g>
            <g fill="#EFF7FF" fill-opacity=".565">
                <path d="M1382.141 302.604h84.52v10.579h-84.52zM1382.141 322.06h84.52v10.58h-84.52zM1382.141 339.355h84.52v10.579h-84.52zM1382.082 378.268h82.407v10.579h-82.407zM1382.082 395.562h82.407v10.58h-82.407zM1382.082 415.019h82.407v10.579h-82.407zM1383.89 434.475h69.73v10.58h-69.73zM1382.082 449.212h82.407v10.58h-82.407zM1382.082 468.669h82.407v10.579h-82.407zM1382.082 485.963h82.407v10.58h-82.407z"/>
                <g>
                    <path d="M1382.082 520.056h82.407v10.579h-82.407zM1382.082 539.512h82.407v10.58h-82.407zM1382.082 556.807h82.407v10.58h-82.407z"/>
                </g>
            </g>
        </g>
        <g transform="translate(1797.152 481.394)">
            <use fill="#D6E4F6" xlink:href="#aM"/>
            <use fill="#000" filter="url(#aN)" xlink:href="#aM"/>
            <mask id="aQ" fill="#fff">
                <use xlink:href="#aO"/>
            </mask>
            <use fill="url(#aP)" xlink:href="#aO"/>
            <path fill="#BCCFE5" fill-rule="nonzero" d="M22.21 37.778l.67-25.806h2.525l.392 15.155 8.26-9.608 1.786 1.85-9.947 11.57.772 29.784h-5.052l.501-19.34-9.651-10.01 1.786-1.849 7.959 8.254z" mask="url(#aQ)" opacity=".1"/>
        </g>
        <g transform="translate(1492.967 514.558)">
            <use fill="url(#aR)" xlink:href="#aS"/>
            <use fill="#000" filter="url(#aT)" xlink:href="#aS"/>
            <ellipse cx="34.301" cy="40.818" fill="url(#aU)" rx="34.301" ry="40.818"/>
            <ellipse cx="19.895" cy="50.504" fill="#C2EEE7" rx="8.918" ry="8.994"/>
            <ellipse cx="8.232" cy="35.976" fill="#C2EEE7" opacity=".34" rx="4.116" ry="4.151"/>
            <ellipse cx="52.138" cy="60.882" fill="#C2EEE7" rx="6.86" ry="6.918"/>
            <ellipse cx="8.232" cy="51.196" fill="#C2EED8" rx="5.488" ry="5.535"/>
            <ellipse cx="32.929" cy="31.825" fill="#C2EED8" opacity=".4" rx="10.976" ry="11.069"/>
            <ellipse cx="60.37" cy="31.825" fill="#C2EEC9" opacity=".4" rx="5.488" ry="5.535"/>
            <ellipse cx="36.359" cy="13.145" fill="url(#aV)" opacity=".1" rx="7.546" ry="7.61"/>
            <ellipse cx="14.406" cy="24.214" fill="#C2EEC9" opacity=".24" rx="7.546" ry="7.61"/>
            <ellipse cx="15.092" cy="60.882" fill="#C2EEC9" rx="6.86" ry="6.918"/>
            <ellipse cx="34.301" cy="9.686" fill="#C2EEC9" opacity=".2" rx="6.86" ry="6.918"/>
            <ellipse cx="24.697" cy="71.951" fill="#C2EEE7" rx="6.86" ry="6.918"/>
            <ellipse cx="36.359" cy="51.888" fill="url(#aW)" opacity=".78" rx="6.174" ry="6.227"/>
            <ellipse cx="51.452" cy="44.969" fill="#C2EEC9" opacity=".4" rx="11.662" ry="11.761"/>
            <ellipse cx="34.987" cy="64.341" fill="#BDE8D9" rx="17.151" ry="17.296"/>
            <path fill="#BCCFE5" fill-rule="nonzero" d="M32.105 57.402l.824-36.647h2.744l.368 16.352 13.068-13.18 1.94 1.958-14.922 15.049.918 40.837h-5.488l.462-20.542-13.095-13.206 1.94-1.956 11.24 11.335z" opacity=".5"/>
        </g>
        <g transform="translate(1875.583 561.013)">
            <path fill="url(#aX)" d="M83.268 41.56c-12.86-6.299-19.29-13.02-19.29-20.16 0-10.713-11.471-19.233-23.928-20.7C27.593-.767 15.687.856 5.307 12.355c-10.38 11.5-2.316 26.83 1.888 29.205s17.3 7.657 25.077-.921c7.778-8.578 14.468-3.297 18.14 0 3.673 3.296 23.066 8.046 30.296 5.67 4.82-1.582 5.672-3.166 2.56-4.749z" transform="translate(0 .053)"/>
            <path fill="url(#aY)" d="M16.914 18.603l2.6-17.373a.515.515 0 0 1 .508-.438h60.056c.718 0 1.403.3 1.89.827l15.689 16.984h1.97c.852 0 1.543.691 1.543 1.544v25.648c0 .285-.23.515-.515.515H5.548a.514.514 0 0 1-.471-.721l11.837-26.986z" transform="translate(92.034 .053)"/>
            <g transform="translate(95.955 .845)">
                <mask id="bb" fill="#fff">
                    <use xlink:href="#aZ"/>
                </mask>
                <use fill="url(#ba)" xlink:href="#aZ"/>
                <rect width="4.758" height="3.166" x="53.92" y="20.582" fill="#D4E4F3" mask="url(#bb)" rx=".7"/>
                <ellipse cx="12.41" cy="43.737" stroke="#000" stroke-width="1.543" mask="url(#bb)" rx="9.527" ry="9.678"/>
                <ellipse cx="74.277" cy="43.737" stroke="#000" stroke-width="1.543" mask="url(#bb)" rx="9.527" ry="9.678"/>
            </g>
            <path fill="#CBE1F5" d="M192.449 41.218h-5.357c-.853 0-1.544.69-1.544 1.543v2.177c0 .569.46 1.03 1.03 1.03h5.87c.569 0 1.03-.461 1.03-1.03v-2.691c0-.569-.461-1.03-1.03-1.03z" opacity=".4"/>
            <path fill="#CBE3F7" d="M183.405 41.218h3.729v3.72c0 .569-.46 1.03-1.029 1.03h-2.7c-.568 0-1.029-.461-1.029-1.03v-2.691c0-.569.461-1.03 1.03-1.03z"/>
            <path fill="#CBE1F5" d="M93.063 40.03h5.975v3.72c0 .57-.46 1.03-1.029 1.03h-4.946c-.568 0-1.029-.46-1.029-1.03v-2.69c0-.57.46-1.03 1.03-1.03z"/>
            <path fill="#C9E1F7" d="M95.72 30.53h1.82v4.75h-1.82a.514.514 0 0 1-.514-.514v-3.72c0-.285.23-.515.514-.515z"/>
            <path fill="url(#bc)" d="M71.713 4.354h7.994v14.25H58.454z" transform="translate(92.034 .053)"/>
            <path fill="url(#bd)" d="M88.73 4.463l7.067.063-12.652 14.077-8.845.043z" opacity=".5" transform="matrix(-1 0 0 1 262.131 .053)"/>
            <g fill="#B9D4EF" stroke="#7B9CC2" stroke-width="1.543" transform="translate(99.61 34.489)">
                <ellipse cx="8.755" cy="10.093" rx="7.983" ry="8.134"/>
                <ellipse cx="70.622" cy="10.093" rx="7.983" ry="8.134"/>
            </g>
            <ellipse cx="188.72" cy="28.552" fill="#EAF4FC" rx="1.586" ry="1.583"/>
            <ellipse cx="191.892" cy="28.552" fill="#EAF4FC" rx="1.586" ry="1.583"/>
        </g>
        <g transform="translate(716.304 317.879)">
            <use fill="url(#be)" xlink:href="#bf"/>
            <use fill="#000" filter="url(#bg)" xlink:href="#bf"/>
            <ellipse cx="96.182" cy="114.507" fill="url(#bh)" rx="96.182" ry="114.507"/>
            <ellipse cx="55.785" cy="141.678" fill="#C2EEE7" rx="25.007" ry="25.23"/>
            <ellipse cx="23.084" cy="100.921" fill="#C2EEE7" opacity=".34" rx="11.542" ry="11.645"/>
            <ellipse cx="146.196" cy="170.79" fill="#C2EEE7" rx="19.236" ry="19.408"/>
            <ellipse cx="23.084" cy="143.619" fill="#C2EED8" rx="15.389" ry="15.526"/>
            <ellipse cx="92.335" cy="89.277" fill="#C2EED8" opacity=".4" rx="30.778" ry="31.053"/>
            <ellipse cx="169.28" cy="89.277" fill="#C2EEC9" opacity=".4" rx="15.389" ry="15.526"/>
            <ellipse cx="101.953" cy="36.875" fill="url(#bi)" opacity=".1" rx="21.16" ry="21.349"/>
            <ellipse cx="40.396" cy="67.928" fill="#C2EEC9" opacity=".24" rx="21.16" ry="21.349"/>
            <ellipse cx="42.32" cy="170.79" fill="#C2EEC9" rx="19.236" ry="19.408"/>
            <ellipse cx="96.182" cy="27.171" fill="#C2EEC9" opacity=".2" rx="19.236" ry="19.408"/>
            <ellipse cx="69.251" cy="201.843" fill="#C2EEE7" rx="19.236" ry="19.408"/>
            <ellipse cx="101.953" cy="145.56" fill="url(#bj)" opacity=".78" rx="17.313" ry="17.467"/>
            <ellipse cx="144.273" cy="126.152" fill="#C2EEC9" opacity=".4" rx="32.702" ry="32.994"/>
            <ellipse cx="98.106" cy="180.494" fill="#BDE8D9" rx="48.091" ry="48.52"/>
            <path fill="#BCCFE5" fill-rule="nonzero" d="M90.024 161.028l2.31-102.804h7.695l1.031 45.872 36.645-36.972 5.441 5.49-41.844 42.217 2.574 114.558H88.487l1.296-57.625-36.718-37.045 5.44-5.49 31.519 31.8z" opacity=".5"/>
        </g>
        <g transform="translate(2105.896 382.092)">
            <use fill="url(#bk)" xlink:href="#bl"/>
            <use fill="#000" filter="url(#bm)" xlink:href="#bl"/>
            <mask id="bp" fill="#fff">
                <use xlink:href="#bn"/>
            </mask>
            <use fill="url(#bo)" xlink:href="#bn"/>
            <ellipse cx="20.443" cy="124.533" fill="#C2EEE7" mask="url(#bp)" rx="17.298" ry="16.912"/>
            <ellipse cx="-18.871" cy="79.947" fill="#C2EEE7" mask="url(#bp)" opacity=".34" rx="9.435" ry="9.225"/>
            <ellipse cx="56.613" cy="110.696" fill="#C2EEE7" mask="url(#bp)" rx="15.726" ry="15.374"/>
            <ellipse cx="-18.871" cy="113.771" fill="#C2EED8" mask="url(#bp)" rx="12.581" ry="12.3"/>
            <ellipse cx="37.742" cy="70.722" fill="#C2EED8" mask="url(#bp)" opacity=".4" rx="25.161" ry="24.599"/>
            <ellipse cx="100.645" cy="70.722" fill="#C2EEC9" mask="url(#bp)" opacity=".4" rx="12.581" ry="12.3"/>
            <ellipse cx="45.605" cy="53.811" fill="url(#bq)" mask="url(#bp)" opacity=".1" rx="17.298" ry="16.912"/>
            <ellipse cx="-4.718" cy="53.811" fill="#C2EEC9" mask="url(#bp)" opacity=".24" rx="17.298" ry="16.912"/>
            <ellipse cx="6.29" cy="147.595" fill="#C2EEC9" mask="url(#bp)" rx="15.726" ry="15.374"/>
            <ellipse cx="66.048" cy="46.123" fill="#C2EEC9" mask="url(#bp)" opacity=".2" rx="15.726" ry="15.374"/>
            <ellipse cx="18.871" cy="159.894" fill="#C2EEE7" mask="url(#bp)" rx="15.726" ry="15.374"/>
            <ellipse cx="45.605" cy="115.308" fill="url(#br)" mask="url(#bp)" opacity=".78" rx="14.153" ry="13.837"/>
            <ellipse cx="80.201" cy="99.934" fill="#C2EEC9" mask="url(#bp)" opacity=".4" rx="14.153" ry="13.837"/>
            <ellipse cx="48.75" cy="155.282" fill="#BDE8D9" mask="url(#bp)" rx="29.879" ry="29.211"/>
            <path fill="#BCCFE5" fill-rule="nonzero" d="M47.177 181.716h-12.58l3.145-135.593h6.29l3.145 135.593zm-3.568-28.872l-3.374-3.999 26.237-31.099 3.373 3.999-26.236 31.099zm0-49.198l-3.374-3.999L59.53 82.1l3.373 3.998-19.294 17.549zm1.074 14.1l-4.448 4.349-25.16-21.524 4.447-4.349 25.161 21.524z" mask="url(#bp)" opacity=".5"/>
        </g>
    </g>
</svg>
